<svg version="1.1" viewBox="0.0 0.0 768.0 768.0" fill="none" stroke="none" stroke-linecap="square" stroke-miterlimit="10" xmlns:xlink="http://www.w3.org/1999/xlink" xmlns="http://www.w3.org/2000/svg"><clipPath id="g8089d689b1_0_20.0"><path d="m0 0l768.0 0l0 768.0l-768.0 0l0 -768.0z" clip-rule="nonzero"/></clipPath><g clip-path="url(#g8089d689b1_0_20.0)"><path fill="#ffd966" d="m0 0l768.0 0l0 768.0l-768.0 0z" fill-rule="evenodd"/><path fill="#000000" fill-opacity="0.0" d="m33.29134 216.37796l0 0c0 -58.96837 47.803295 -106.77166 106.77165 -106.77166l496.8819 0c28.317627 0 55.475403 11.249123 75.49896 31.272697c20.02356 20.02356 31.272705 47.18135 31.272705 75.49896l0 427.08658c0 58.968384 -47.803345 106.77167 -106.77167 106.77167l-496.8819 0l0 0c-58.968353 0 -106.77165 -47.803284 -106.77165 -106.77167z" fill-rule="evenodd"/><path stroke="#000000" stroke-width="3.0" stroke-linejoin="round" stroke-linecap="butt" d="m33.29134 216.37796l0 0c0 -58.96837 47.803295 -106.77166 106.77165 -106.77166l496.8819 0c28.317627 0 55.475403 11.249123 75.49896 31.272697c20.02356 20.02356 31.272705 47.18135 31.272705 75.49896l0 427.08658c0 58.968384 -47.803345 106.77167 -106.77167 106.77167l-496.8819 0l0 0c-58.968353 0 -106.77165 -47.803284 -106.77165 -106.77167z" fill-rule="evenodd"/><path fill="#000000" fill-opacity="0.0" d="m176.7244 125.41732l177.7638 0l0 53.039375l-177.7638 0z" fill-rule="evenodd"/><path stroke="#000000" stroke-width="3.0" stroke-linejoin="round" stroke-linecap="butt" d="m176.7244 125.41732l177.7638 0l0 53.039375l-177.7638 0z" fill-rule="evenodd"/><path fill="#000000" d="m212.27867 170.59512q-0.53125 -0.28125 -0.75 -0.53125q-0.203125 -0.234375 -0.203125 -0.609375q0 -0.484375 0.40625 -1.375q0.40625 -0.890625 1.40625 -2.8125q0.296875 -0.625 1.109375 -2.203125q2.78125 -5.328125 2.78125 -5.8125q-0.046875 -0.09375 -0.046875 -0.28125q0 -0.484375 0.765625 -0.859375q1.109375 -1.109375 1.828125 -2.359375q0.484375 -1.046875 1.296875 -2.515625q0.8125 -1.46875 2.015625 -3.484375q0.578125 -1.0 1.71875 -2.921875q1.78125 -3.171875 4.5625 -6.921875q1.109375 -1.484375 1.828125 -1.4375q0.90625 0 2.03125 0.84375q1.140625 0.84375 1.5625 1.890625q0.203125 0.34375 0.203125 1.4375q0 1.5 -0.34375 5.046875q-0.09375 0.625 -0.1875 1.96875q-0.140625 2.15625 -0.4375 4.609375q-0.515625 5.375 -0.765625 8.40625q-0.234375 3.015625 -0.234375 5.65625q0 1.34375 0.046875 1.96875l0 0.328125l-0.046875 1.109375q-0.296875 0.296875 -0.875 0.296875q-0.671875 0 -1.296875 -0.3125q-0.609375 -0.3125 -0.71875 -0.75q-0.046875 -0.046875 -0.140625 -0.09375q-0.09375 -0.046875 -0.09375 -0.4375l0.046875 -1.046875l0.140625 -2.6875l0.25 -7.78125l-0.625 0.046875q-0.96875 0 -4.28125 0.390625q-3.3125 0.375 -4.125 0.609375q-0.421875 0 -1.046875 0.578125q-0.625 0.578125 -1.109375 1.5q-0.140625 0.46875 -0.671875 1.359375q-0.53125 0.890625 -0.53125 1.03125q-0.28125 0.1875 -0.5 0.5q-0.21875 0.3125 -0.265625 0.421875q0 0.515625 -0.984375 2.6875q-0.984375 2.15625 -1.9375 3.59375l-1.015625 1.53125l-0.765625 -0.578125zm9.9375 -15.453125q0.28125 -0.046875 1.234375 -0.203125q0.96875 -0.171875 1.734375 -0.21875q3.46875 -0.828125 4.234375 -0.828125q0.328125 0 0.625 0.15625q0.140625 0.1875 0.296875 0.265625q0.171875 0.0625 0.21875 0.0625q0.109375 -0.28125 0.609375 -5.203125q0.5 -4.921875 0.546875 -6.5625l0.140625 -2.390625q-0.28125 0 -1.25 1.109375q-0.953125 1.09375 -2.125 2.84375q-1.171875 1.75 -2.09375 3.578125q-0.484375 0.859375 -0.9375 1.609375q-0.453125 0.75 -0.640625 0.75q-0.34375 0.328125 -1.59375 2.59375q-1.234375 2.25 -1.0 2.4375zm26.631683 13.78125q-1.140625 -1.109375 -1.71875 -3.265625q-0.09375 -0.28125 -0.09375 -1.0q0 -0.734375 0 -1.015625q-0.296875 0.71875 -1.0625 1.296875q-1.109375 1.109375 -2.203125 1.625q-1.6875 1.109375 -2.734375 1.109375q-0.96875 0 -1.828125 -1.0625q-0.625 -0.515625 -0.9375 -1.046875q-0.3125 -0.53125 -0.3125 -1.296875q0 -0.53125 0.140625 -1.15625q0.09375 -1.78125 0.5 -3.40625q0.421875 -1.625 1.5625 -4.171875q1.546875 -3.03125 2.21875 -4.03125q0.234375 -0.09375 0.625 -0.09375q0.46875 0 0.78125 0.28125q0.3125 0.28125 0.359375 0.765625q0.15625 0.1875 0.15625 0.53125q0 1.203125 -1.453125 3.9375q-1.859375 4.515625 -1.859375 6.234375q0 1.015625 0.5625 1.203125q0.25 0.140625 0.53125 0.140625q1.203125 0 2.875 -1.625q1.6875 -1.640625 3.21875 -5.234375q0.671875 -1.640625 0.828125 -3.359375q-0.046875 -0.140625 -0.046875 -0.4375q0 -0.859375 0.859375 -1.390625q0.1875 -0.28125 0.515625 -0.453125q0.34375 -0.171875 0.4375 0.03125l0.765625 -0.0625q0.15625 -0.046875 0.296875 0.265625q0.140625 0.3125 0.28125 0.40625q0.34375 0.296875 0.34375 1.0625q0 1.578125 -1.390625 4.84375q-0.921875 1.921875 -1.234375 2.953125q-0.3125 1.03125 -0.359375 2.0q0 1.8125 1.390625 3.015625q0.484375 0.34375 0.578125 0.734375q0.09375 0.375 0.046875 1.046875q-0.09375 0.4375 -0.546875 0.703125q-0.453125 0.25 -0.984375 0.25q-0.625 0 -1.109375 -0.328125zm10.088181 -0.25q-0.765625 -0.140625 -1.5625 -1.015625q-0.796875 -0.890625 -1.03125 -1.671875q0 -0.09375 -0.09375 -0.203125q-0.09375 -0.125 -0.140625 -0.171875q-0.20314026 -0.140625 -0.20314026 -1.578125q0 -1.15625 0.12501526 -2.40625q0.125 -1.25 0.3125 -2.015625l0.859375 -2.546875l0.671875 -1.921875l1.296875 -2.78125l-1.921875 -0.53125q-0.328125 -0.046875 -0.546875 -0.328125q-0.21875 -0.296875 -0.21875 -0.53125q0 -0.390625 0.40625 -0.9375q0.40625 -0.546875 0.65625 -0.546875q0.140625 0.046875 0.765625 0.046875q1.4375 0 2.15625 -0.140625q0.484375 -0.203125 0.671875 -0.78125q0.1875 -0.375 0.453125 -0.953125q0.265625 -0.578125 0.515625 -1.0625q0.140625 -0.28125 0.453125 -0.875q0.3125 -0.609375 0.796875 -1.375q0.09375 -0.140625 0.421875 -0.6875q0.34375 -0.5625 0.8125 -0.9375q0.34375 -0.34375 0.828125 -0.34375q0.46875 0 1.234375 0.625q0.109375 0.140625 0.265625 0.390625q0.171875 0.234375 0.171875 0.421875q0 0.1875 -0.375 0.8125q-0.296875 0.578125 -0.5625 1.046875q-0.265625 0.453125 -0.453125 0.78125q-0.578125 0.96875 -0.8125 1.4375q-0.484375 0.625 -0.484375 0.96875q0 0.328125 0.625 0.328125q0.671875 0 2.25 -0.28125q0.671875 -0.09375 0.921875 -0.09375q1.671875 0 1.828125 1.390625q0.046875 0.28125 0.046875 0.671875q0 0.671875 -0.46875 0.8125q-0.453125 0.140625 -2.03125 0.140625q-1.53125 0.25 -3.171875 0.25q-0.28125 0 -0.640625 0.03125q-0.359375 0.015625 -0.75 0.109375q-0.390625 0.09375 -0.5625 0.296875q-0.15625 0.1875 -0.34375 0.609375q-0.15625 0.140625 -0.671875 1.109375q-0.671875 1.390625 -0.875 1.671875q-1.296875 3.84375 -1.921875 7.875q-0.09375 0.765625 -0.09375 0.96875q0 0.71875 0.484375 1.015625q0.484375 0.28125 1.625 0.28125q1.640625 0 2.84375 -0.34375q1.4375 -0.625 2.15625 -1.0625q0.4375 -0.234375 0.796875 -0.453125q0.359375 -0.21875 0.5 -0.3125q0.140625 -0.28125 0.328125 -0.28125q0.390625 0 0.671875 0.765625q0 0.765625 -0.34375 1.34375q-0.328125 0.578125 -1.671875 1.34375q-2.78125 1.78125 -5.5625 1.78125q-0.765625 0 -1.4375 -0.15625zm27.216156 -1.140625q-0.71875 0.375 -1.53125 0.375q-1.203125 0 -1.953125 -1.046875q-0.734375 -1.0625 -0.734375 -2.828125q0 -0.828125 0.328125 -2.71875q0.34375 -1.890625 0.765625 -3.140625q0.046875 -0.09375 0.140625 -0.375q0.109375 -0.296875 0.078125 -0.421875q-0.03125 -0.125 -0.125 -0.125q-0.234375 0 -0.859375 0.625q-1.34375 1.15625 -2.890625 2.90625q-1.53125 1.75 -2.546875 3.359375q-1.0 1.609375 -1.0 2.234375q0 0.53125 -0.40625 0.828125q-0.40625 0.28125 -0.9375 0.28125q-0.328125 0 -0.625 -0.15625q-0.71875 -0.421875 -0.984375 -0.953125q-0.25 -0.53125 -0.25 -1.53125q0 -0.8125 0.046875 -1.296875q0.1875 -3.3125 0.6875 -5.828125q0.5 -2.53125 1.953125 -7.1875q0.046875 -0.140625 0.90625 -2.4375q1.484375 -4.234375 1.671875 -4.609375q0.34375 -0.34375 0.984375 -2.09375q0.65625 -1.75 0.65625 -2.140625q0 -0.71875 0.484375 -1.1875l0.46875 -0.484375q0.4375 0 1.015625 0.359375q0.578125 0.359375 0.71875 0.84375q0.328125 0.625 0.328125 1.34375q0 0.671875 -0.40625 1.65625q-0.40625 0.984375 -1.359375 2.84375q-1.390625 2.796875 -2.59375 6.390625q-0.53125 1.53125 -1.46875 4.78125q-0.9375 3.234375 -0.9375 3.765625q0 0.328125 0.34375 0.328125q0.375 0 0.8125 -0.578125q0.1875 -0.375 1.828125 -1.859375q0.1875 -0.203125 2.15625 -2.0q1.96875 -1.796875 2.828125 -1.796875q0.578125 0 1.125 0.4375q0.5625 0.421875 0.75 1.0q0.1875 0.1875 0.28125 0.390625q0.109375 0.1875 0.203125 0.28125q0.09375 0.09375 0.09375 0.578125q0 1.6875 -1.0625 4.84375q-0.8125 3.171875 -0.8125 3.796875q0 0.4375 0.25 0.4375q0.140625 -0.109375 0.5625 -0.34375q0.4375 -0.234375 1.015625 -0.578125q1.625 -1.09375 2.875 -1.09375q0.578125 0 0.578125 0.375q0 0.09375 -0.140625 0.34375q-0.140625 0.234375 -0.140625 0.375l0 0.25q0 0.234375 -1.296875 1.4375q-1.296875 1.203125 -1.875 1.34375zm11.713898 -0.34375q-0.71875 0.140625 -1.0625 0.140625q-0.28125 0 -0.484375 -0.109375q-0.1875 -0.125 -0.515625 -0.453125q-1.0625 -0.53125 -1.671875 -1.515625q-0.59375 -0.984375 -0.5 -1.75q0.203125 -2.21875 1.28125 -4.859375q1.078125 -2.640625 2.5625 -4.65625q1.484375 -2.015625 2.890625 -2.484375q0.859375 -0.34375 1.4375 -0.34375q1.140625 0 1.625 0.96875q0.34375 0.671875 0.34375 1.0q0 0.578125 -0.671875 0.765625q-0.15625 0 -0.34375 0.15625q-0.1875 0.140625 -0.1875 0.28125q0.046875 0.046875 0.421875 0.046875q0.828125 0 2.015625 -0.234375q1.203125 -0.25 1.546875 -0.53125q0.28125 -0.140625 0.484375 -0.140625l0.671875 0.09375q0.8125 0.234375 0.8125 0.578125q0 0.1875 0.140625 0.359375q0.140625 0.15625 0.328125 0.15625q0.296875 0.0625 -0.0625 0.40625q-0.359375 0.328125 -1.375 1.09375q-0.234375 0.140625 -0.6875 0.4375q-0.453125 0.28125 -0.53125 0.46875q-0.078125 0.1875 0.03125 0.53125q0.1875 0.4375 0.1875 1.046875q0 1.59375 -1.375 3.515625q-1.359375 1.921875 -3.40625 3.359375q-2.03125 1.4375 -3.90625 1.671875zm-0.8125 -2.109375q0.28125 0 1.4375 -0.578125q0.625 -0.625 1.0 -0.765625q0.34375 0 0.90625 -0.5q0.578125 -0.5 1.78125 -2.046875q0.921875 -1.046875 1.375 -1.765625q0.453125 -0.71875 0.453125 -1.390625q0 -0.296875 -0.046875 -0.4375q-0.046875 -0.140625 -0.3125 -0.265625q-0.265625 -0.125 -0.5 -0.21875q-0.4375 0 -0.796875 -0.21875q-0.359375 -0.21875 -1.03125 -0.734375l-0.765625 -0.96875l-0.8125 0.8125q-1.15625 1.15625 -2.359375 3.78125q-1.203125 2.609375 -1.34375 4.046875q-0.046875 0.671875 0.21875 0.9375q0.265625 0.265625 0.796875 0.3125zm15.115906 2.828125q-0.1875 0.34375 -0.484375 0.34375q-0.28125 0 -0.59375 -0.1875q-0.3125 -0.203125 -0.359375 -0.25q-0.71875 0 -0.921875 -0.765625q-0.046875 -0.09375 -0.046875 -0.4375q0 -0.625 0.578125 -2.4375l0.34375 -1.546875q0.46875 -2.109375 0.859375 -3.546875q0.140625 -0.234375 0.578125 -1.625q0.28125 -1.0625 0.765625 -2.0625q0.578125 -2.171875 1.828125 -4.28125q0.09375 -0.140625 0.375 -0.375q0.296875 -0.25 0.4375 -0.25q0.28125 -0.28125 0.625 -0.28125q0.328125 0 0.859375 0.421875q0.484375 0.578125 0.484375 1.109375q0 0.90625 -1.203125 2.734375l-0.765625 1.875q-0.09375 0.234375 -0.484375 1.125q-0.375 0.890625 -0.484375 1.609375q0.625 -0.859375 2.265625 -2.5q0.953125 -0.953125 1.578125 -1.40625q0.625 -0.453125 1.828125 -1.234375q0.859375 -0.625 1.53125 -0.90625q0.671875 -0.28125 1.484375 -0.28125q0.4375 0 0.671875 0.046875q0.671875 -0.046875 1.0625 0.671875q0.390625 0.71875 0.484375 1.859375q-0.578125 -0.09375 -0.8125 -0.09375q-0.96875 0 -1.71875 0.390625q-0.734375 0.375 -1.21875 0.75q-0.484375 0.359375 -0.625 0.453125q-2.59375 1.671875 -4.03125 3.15625q-1.484375 1.640625 -2.09375 2.40625q-0.59375 0.765625 -0.875 1.53125q-0.15625 0.34375 -0.828125 2.0q-0.671875 1.65625 -1.09375 1.984375z" fill-rule="nonzero"/><path fill="#000000" fill-opacity="0.0" d="m430.34155 183.93701l177.7638 0l0 53.039368l-177.7638 0z" fill-rule="evenodd"/><path stroke="#000000" stroke-width="3.0" stroke-linejoin="round" stroke-linecap="butt" d="m430.34155 183.93701l177.7638 0l0 53.039368l-177.7638 0z" fill-rule="evenodd"/><path fill="#000000" d="m467.66495 229.3648l0.046875 -0.140625q0 -0.484375 -0.8125 -0.53125q-1.0 -0.625 -1.796875 -1.625q-0.796875 -1.015625 -1.078125 -1.78125q-0.34375 -0.78125 -0.34375 -0.828125q0 -0.140625 0.171875 -0.234375q0.171875 -0.09375 0.40625 -0.234375q0.296875 -0.25 0.625 -0.25q0.203125 0 0.359375 0.21875q0.171875 0.21875 0.453125 0.75q0.578125 1.0 1.96875 1.609375q1.390625 0.59375 3.171875 0.59375q2.15625 0 4.03125 -0.859375q1.25 -0.53125 1.828125 -1.03125q0.578125 -0.515625 0.578125 -1.125q0 -0.578125 -0.53125 -1.40625q-0.140625 -0.375 -0.40625 -0.6875q-0.265625 -0.3125 -0.75 -0.75q-0.28125 -0.234375 -1.09375 -1.046875q-0.78125 -0.296875 -1.59375 -0.765625l-1.0 -0.484375q-1.296875 -0.578125 -3.0 -1.984375q-1.703125 -1.421875 -2.28125 -2.484375q-0.671875 -0.625 -1.0625 -1.71875q-0.375 -1.109375 -0.375 -2.40625q0 -1.734375 0.71875 -3.171875q0.578125 -1.296875 2.546875 -3.59375q1.96875 -2.3125 3.015625 -3.03125l1.25 -1.203125q0.046875 -0.1875 0.140625 -0.203125q0.09375 -0.03125 0.140625 -0.03125q0.15625 -0.09375 1.015625 -0.453125q0.859375 -0.359375 1.828125 -1.28125q3.265625 -1.578125 5.25 -2.265625q2.0 -0.703125 3.28125 -0.703125q1.828125 0.09375 3.09375 1.125q1.28125 1.03125 1.515625 2.71875q0.109375 0.28125 0.109375 0.859375q0 1.734375 -1.25 3.734375q-1.25 1.984375 -2.84375 2.890625q-1.1875 0.53125 -1.671875 0.53125q-0.34375 0 -0.46875 -0.234375q-0.109375 -0.25 -0.0625 -0.78125q0 -0.421875 0.3125 -0.96875q0.3125 -0.5625 1.421875 -1.8125q1.96875 -2.828125 1.96875 -4.21875q0 -0.8125 -0.71875 -0.875q-0.53125 -0.140625 -2.671875 0.25q-2.140625 0.375 -2.140625 0.625q0 0.046875 -0.03125 0.171875q-0.015625 0.109375 -0.15625 0.0625q-0.1875 -0.046875 -3.546875 2.0q-3.359375 2.03125 -3.453125 2.28125q-0.0625 0.234375 -0.375 0.5q-0.296875 0.265625 -0.734375 0.453125q-0.90625 0.53125 -1.6875 1.546875q-0.765625 1.0 -1.8125 2.875q-0.578125 0.8125 -0.9375 1.78125q-0.359375 0.953125 -0.359375 1.71875q0 0.53125 0.140625 0.90625q0.234375 0.8125 1.484375 2.0q1.25 1.171875 3.125 2.28125q2.4375 1.390625 4.09375 2.71875q1.65625 1.3125 2.09375 2.21875q1.109375 1.53125 1.109375 3.40625q0 0.671875 -0.140625 1.25q-0.390625 0.8125 -1.203125 1.609375q-0.8125 0.796875 -1.390625 0.75q-0.484375 0.140625 -0.828125 0.34375q-0.328125 0.21875 -0.5625 0.328125q-0.53125 0.328125 -2.53125 0.546875q-1.984375 0.21875 -3.671875 0.125l-1.921875 -0.578125zm20.691803 -2.546875q-0.578125 0 -0.921875 -0.1875q-0.328125 -0.203125 -0.953125 -0.71875q-1.578125 -1.6875 -1.578125 -3.078125q0 -0.34375 0.046875 -0.484375q0.140625 -0.328125 0.109375 -0.65625q-0.015625 -0.34375 -0.015625 -0.4375q-0.1875 -0.203125 -0.1875 -0.265625q0 -0.078125 0.09375 -0.140625q0.09375 -0.078125 0.140625 -0.171875q0.296875 0 0.203125 -0.53125q-0.109375 -0.390625 0.375 -1.703125q0.484375 -1.328125 1.203125 -2.421875q0.53125 -0.875 1.5625 -2.15625q1.03125 -1.296875 1.84375 -1.96875q1.15625 -1.015625 2.0625 -1.484375q0.921875 -0.484375 2.015625 -0.734375q0.96875 -0.234375 1.296875 -0.234375q0.34375 0 0.59375 0.171875q0.265625 0.15625 0.703125 0.59375q1.296875 0.578125 1.796875 1.46875q0.515625 0.890625 0.515625 2.75q0 3.125 -2.546875 6.765625q-1.109375 1.59375 -2.078125 2.4375q-0.953125 0.828125 -2.53125 1.796875q-1.015625 0.71875 -1.859375 1.03125q-0.828125 0.3125 -1.890625 0.359375zm4.609375 -5.09375q1.15625 -1.296875 1.84375 -2.4375q0.703125 -1.15625 1.328125 -2.9375q0.234375 -0.8125 0.234375 -1.96875q0 -1.4375 -0.375 -1.625q-0.484375 -0.25 -0.96875 -0.25q-1.046875 0 -2.203125 0.96875q-1.390625 1.203125 -2.5 2.953125q-1.109375 1.75 -2.25 4.34375q-0.484375 1.0 -0.484375 1.96875q0 0.71875 0.359375 1.15625q0.359375 0.421875 0.984375 0.421875q1.578125 0 4.03125 -2.59375zm20.303406 5.71875q-0.328125 0.1875 -0.890625 -0.140625q-0.546875 -0.34375 -1.078125 -1.015625q-0.375 -0.625 -0.453125 -1.296875q-0.078125 -0.671875 -0.078125 -2.78125q0 -0.484375 -0.1875 -0.484375q-0.140625 0 -0.671875 0.46875q-0.53125 0.453125 -1.296875 1.21875q-1.25 1.203125 -2.3125 1.875q-1.046875 0.671875 -1.71875 0.625q-0.53125 0 -1.140625 -0.71875q-0.59375 -0.734375 -0.921875 -1.6875q-0.140625 -0.578125 -0.140625 -1.34375q0 -2.015625 0.828125 -4.890625q0.84375 -2.890625 1.96875 -4.96875q1.140625 -2.09375 2.0 -2.09375q0.71875 0 1.34375 1.578125q0.140625 0.296875 0.140625 0.484375q0 0.34375 -0.375 0.671875q-0.71875 0.90625 -1.6875 3.265625q-0.953125 2.359375 -1.515625 4.375q-0.546875 2.015625 -0.203125 2.015625q0.671875 0 1.578125 -0.53125q0.90625 -0.53125 1.828125 -1.390625q0.90625 -0.921875 1.625 -1.953125q0.71875 -1.03125 1.78125 -2.796875q2.015625 -3.21875 2.203125 -3.75q0.71875 -1.34375 1.03125 -1.75q0.3125 -0.40625 0.796875 -0.546875l0.671875 0q0.28125 0.046875 0.671875 0.421875q0.328125 0.140625 0.40625 0.3125q0.078125 0.171875 0.078125 0.453125l-0.78125 1.78125l-0.421875 1.0q-0.046875 0.203125 -0.53125 1.109375q-1.109375 2.453125 -1.6875 3.9375q-0.5625 1.484375 -0.859375 3.078125q-0.046875 0.234375 -0.046875 0.8125q0 1.4375 0.28125 2.015625q0.4375 0.859375 0.875 1.25q0.234375 0.1875 0.234375 0.375q0 0.34375 -0.5625 0.6875q-0.546875 0.328125 -0.78125 0.328125zm7.400635 -1.59375q-0.390625 -0.28125 -0.53125 -0.515625q-0.140625 -0.25 -0.140625 -0.71875q0 -0.4375 0.046875 -0.71875q0.140625 -1.640625 0.71875 -3.796875l0.234375 -0.96875q0.140625 -1.1875 1.671875 -5.03125q1.546875 -3.84375 2.5 -5.234375q0.390625 -0.234375 0.828125 -0.234375q0.609375 0 1.046875 0.421875q0.296875 0.203125 0.296875 0.71875q0 0.484375 -0.375 1.421875q-0.359375 0.9375 -1.21875 2.765625q-0.1875 0.375 -0.640625 1.4375q-0.453125 1.046875 -0.453125 1.25q0 0.09375 0.046875 0.09375q0.09375 0 0.1875 -0.0625q0.09375 -0.078125 0.1875 -0.125q0.53125 -0.921875 2.5625 -2.5q2.046875 -1.59375 2.8125 -1.96875q0.34375 -0.1875 0.859375 -0.375q0.53125 -0.203125 0.734375 -0.296875q0.765625 -0.390625 1.8125 -0.390625q0.671875 0 1.171875 0.21875q0.515625 0.21875 0.703125 0.65625q0.046875 0.328125 0.265625 0.53125q0.21875 0.1875 0.3125 0.234375q0.140625 0 0.1875 0.125q0.046875 0.109375 0.046875 0.15625q0 0.34375 -0.390625 0.421875q-0.375 0.0625 -1.375 0.109375q-0.53125 0.046875 -1.109375 0.25q-0.578125 0.1875 -1.15625 0.46875q-2.6875 1.53125 -4.015625 2.40625q-1.3125 0.859375 -2.65625 2.34375q-0.515625 0.578125 -1.390625 2.0625q-0.328125 0.34375 -0.6875 1.765625q-0.359375 1.40625 -0.359375 1.734375q-0.046875 0.15625 -0.203125 0.5625q-0.140625 0.40625 -0.421875 0.78125q-0.578125 0.78125 -0.96875 0.78125q-0.421875 0 -1.140625 -0.78125zm21.40503 0.578125q-1.484375 0 -1.96875 -0.15625q-0.484375 -0.171875 -1.109375 -0.75q-0.484375 -0.953125 -0.953125 -1.4375q-0.203125 -0.53125 -0.203125 -1.59375q0 -1.1875 0.28125 -2.609375q0.296875 -1.421875 0.78125 -2.65625q0.1875 -0.390625 0.3125 -0.71875q0.125 -0.34375 0.171875 -0.4375q0 -0.34375 1.21875 -2.09375q1.21875 -1.75 1.9375 -2.421875q0.34375 -0.390625 1.03125 -0.8125q0.703125 -0.4375 1.234375 -0.625q1.34375 -0.484375 2.34375 -0.484375q1.390625 0 2.359375 1.296875q1.0625 1.0625 1.0625 2.359375q0 0.46875 -0.15625 1.046875q-0.46875 1.921875 -1.390625 1.921875q-0.625 0 -1.203125 -0.71875q-0.1875 -0.484375 -0.1875 -0.625q0 -0.140625 0.1875 -0.8125q0.109375 -0.484375 0.109375 -0.671875q0 -0.578125 -0.203125 -1.0q-0.1875 -0.4375 -0.53125 -0.4375q-1.09375 0 -2.875 1.921875q-0.625 0.671875 -1.609375 2.109375q-0.984375 1.4375 -1.453125 2.59375q-0.484375 1.4375 -0.78125 2.359375q-0.28125 0.90625 -0.375 1.140625q0 0.09375 0.109375 0.34375q0.125 0.234375 0.125 0.375q0 0.328125 0.140625 0.53125q0.15625 0.1875 0.53125 0.375q0.53125 0.390625 1.25 0.390625q0.765625 0 1.78125 -0.484375q0.625 -0.28125 1.765625 -1.25l1.15625 -0.859375q0.34375 -0.234375 0.59375 -0.40625q0.265625 -0.171875 0.40625 -0.234375q0.15625 -0.078125 0.15625 0.015625q0 0.1875 0.140625 0.1875q0.140625 0 0.34375 -0.1875q0.421875 -0.578125 1.09375 -0.578125q0.390625 0 0.390625 0.140625l-0.046875 0.25q0 0.234375 0.234375 0.46875q0 0.203125 -0.125 0.515625q-0.109375 0.3125 -0.3125 0.5q-0.28125 0.4375 -0.984375 1.03125q-0.6875 0.59375 -0.921875 0.796875l-0.0625 0q-0.234375 0 -0.671875 0.421875q-0.71875 0.671875 -1.234375 0.671875q-0.203125 0.109375 -0.4375 0.234375q-0.234375 0.109375 -0.234375 0.25q-0.484375 0.484375 -1.15625 0.65625q-0.671875 0.15625 -2.0625 0.15625zm15.1605835 -0.046875q-1.53125 -0.625 -2.15625 -1.609375q-0.625 -0.984375 -0.625 -2.75q0 -0.875 0.140625 -2.015625l0.09375 -1.734375q0 -0.4375 -0.09375 -0.671875q-0.09375 -0.234375 -0.421875 -0.53125q-0.109375 -0.09375 -0.5 -0.46875q-0.375 -0.390625 -0.328125 -0.625l-0.046875 -0.25q0 -0.328125 0.125 -0.609375q0.125 -0.296875 0.265625 -0.296875q0.140625 0 0.375 -0.0625q0.25 -0.078125 0.4375 -0.03125q0.671875 0 0.671875 0.28125q0.1875 0.390625 0.640625 0.078125q0.46875 -0.3125 0.890625 -1.234375q0.671875 -1.046875 1.984314 -2.21875q1.328125 -1.1875 2.203125 -1.65625q0.328125 -0.203125 1.09375 -0.359375q0.78125 -0.171875 1.34375 -0.171875q0.875 0 1.515625 0.390625q0.65625 0.375 1.328125 1.09375q0.90625 0.671875 0.90625 2.109375q0 1.015625 -0.484375 2.0625q-0.1875 0.71875 -1.515625 1.828125q-1.3125 1.109375 -2.421875 1.53125q-1.34375 0.34375 -3.0625 0.34375q-1.15625 0 -1.484314 -0.1875q-0.578125 -0.34375 -0.828125 2.578125q-0.046875 0.34375 -0.046875 0.921875q0 0.8125 0.25 1.296875q0.046875 0.046875 0.328125 0.359375q0.296875 0.3125 0.71868896 0.53125q0.4375 0.203125 0.921875 0.203125q0.421875 0 0.671875 -0.09375q0.515625 -0.140625 1.0 -0.546875q0.484375 -0.40625 1.34375 -1.265625q0.765625 -0.78125 1.109375 -1.0625q0.234375 -0.4375 0.953125 -0.4375q0.1875 0 0.671875 0.09375q0.4375 0.34375 0.4375 0.734375q0 0.375 -0.484375 1.4375q-0.234375 0.46875 -1.171875 1.3125q-0.9375 0.84375 -1.65625 1.328125q-1.484375 0.8125 -2.984375 0.8125q-0.90625 0 -2.109314 -0.4375zm2.828064 -9.734375q0.484375 -0.09375 1.390625 -0.234375q0.921875 -0.15625 1.515625 -0.65625q0.609375 -0.5 1.421875 -1.75q0.140625 -0.390625 0.140625 -0.765625q0 -0.734375 -0.28125 -1.015625q-0.34375 -0.328125 -0.765625 -0.328125q-0.671875 0 -1.390625 0.5625q-0.484375 0.15625 -1.421875 1.0625q-0.9375 0.90625 -1.609375 1.796875q-0.671875 0.890625 -0.4375 1.03125q-0.09375 0.140625 0.484375 0.21875q0.578125 0.078125 0.953125 0.078125zm13.834412 10.21875q-2.40625 0 -3.5 -1.734375q-0.34375 -0.375 -0.34375 -0.953125q0 -0.28125 0.109375 -0.5q0.125 -0.21875 0.328125 -0.21875q0.234375 0 0.53125 0.328125q0.671875 0.390625 1.90625 0.390625q1.34375 0 2.640625 -0.484375q1.546875 -0.671875 0.875 -1.046875l0.046875 0q-1.875 -0.484375 -3.734375 -1.84375q-1.84375 -1.375 -2.03125 -2.484375q-0.140625 -0.578125 -0.140625 -1.203125q0 -1.1875 0.515625 -2.390625q0.53125 -1.203125 1.453125 -2.21875q1.4375 -0.90625 1.875 -1.0l0 0.046875q0.8125 -0.8125 1.984375 -1.390625q1.171875 -0.578125 3.046875 -1.203125l0.71875 -0.09375l0.96875 -0.09375q0.046875 0.046875 0.234375 0.09375q0.1875 0.046875 0.390625 0.09375q0.28125 0.140625 0.46875 0.140625q0.921875 0.15625 1.609375 1.109375q0.703125 0.953125 0.609375 1.828125q-0.09375 0.953125 -0.5625 1.65625q-0.453125 0.6875 -1.078125 0.78125q0.046875 -0.046875 -0.1875 -0.1875q-0.234375 -0.140625 -0.390625 -0.234375l-0.140625 0.09375q0 -0.046875 -0.03125 -0.171875q-0.015625 -0.125 -0.109375 -0.265625q-0.140625 -0.28125 -0.140625 -0.71875l0.046875 -0.71875l0.09375 -0.484375q0 -0.140625 -0.203125 -0.203125q-0.1875 -0.078125 -0.515625 -0.078125l-0.390625 -0.046875q-0.765625 0 -1.875 0.390625q-1.09375 0.375 -1.8125 0.953125q-1.640625 1.046875 -2.4375 1.84375q-0.78125 0.796875 -1.265625 1.84375q-0.578125 0.828125 -0.578125 1.203125q0 0.53125 0.75 1.0625q0.75 0.53125 2.421875 1.296875q1.34375 0.578125 2.1875 1.203125q0.84375 0.625 1.125 1.390625q0.046875 0.09375 0.046875 0.375q0 0.34375 -0.09375 0.4375q0.09375 0.09375 0.09375 0.140625l0 -0.046875q0.1875 0.390625 0.1875 0.625q0 0.765625 -0.953125 1.421875q-0.953125 0.640625 -2.453125 0.921875l0.046875 0q-1.140625 0.34375 -2.34375 0.34375z" fill-rule="nonzero"/><path fill="#000000" fill-opacity="0.0" d="m239.53792 506.7034l370.89764 0l0 82.77164l-370.89764 0z" fill-rule="evenodd"/><path stroke="#000000" stroke-width="3.0" stroke-linejoin="round" stroke-linecap="butt" d="m239.53792 506.7034l370.89764 0l0 82.77164l-370.89764 0z" fill-rule="evenodd"/><path fill="#000000" d="m320.18073 567.7161q-0.625 0.046875 -1.140625 -0.265625q-0.5 -0.3125 -0.6875 -0.796875q-0.28125 -0.28125 -0.625 -0.859375q-0.328125 -0.578125 -0.421875 -1.109375q-0.203125 -2.296875 -0.203125 -3.359375q0 -1.34375 0.140625 -3.640625q0.15625 -2.21875 0.5625 -4.15625q0.40625 -1.9375 1.125 -4.78125q0.28125 -0.90625 0.421875 -1.546875q0.15625 -0.65625 0.015625 -0.65625q-0.25 0.046875 -0.875 1.234375q-0.625 1.171875 -1.25 2.515625q-0.28125 0.515625 -0.546875 1.125q-0.265625 0.59375 -0.546875 1.125q-1.34375 2.984375 -4.953125 9.03125q-0.421875 0.515625 -1.1875 1.671875q-1.5 2.265625 -2.453125 3.125q-1.203125 1.15625 -2.40625 1.15625q-0.859375 0 -1.4375 -0.578125q-0.625 -0.765625 -0.625 -1.5q0 -0.1875 0.09375 -0.671875q-0.140625 -1.1875 0.265625 -4.90625q0.40625 -3.734375 0.84375 -6.21875q0.34375 -2.3125 1.484375 -7.59375l1.0625 -5.171875q0.28125 -0.734375 0.90625 -2.890625l0.4375 -1.578125q0.046875 -0.859375 0.375 -1.265625q0.34375 -0.421875 0.828125 -0.421875q0.671875 0 1.140625 0.625q0.78125 0.875 0.78125 2.0625q0 0.96875 -0.4375 1.96875q-2.15625 5.28125 -3.453125 13.921875q-0.484375 2.828125 -0.890625 6.078125q-0.40625 3.234375 -0.21875 3.28125q0.390625 0.09375 1.0625 -0.59375q0.671875 -0.703125 1.1875 -1.84375q3.265625 -5.4375 7.640625 -13.921875q0.09375 -0.15625 2.109375 -3.9375l1.15625 -2.15625q0.140625 -0.296875 0.359375 -0.65625q0.21875 -0.359375 0.453125 -0.75q1.0625 -1.953125 1.65625 -2.90625q0.59375 -0.96875 0.9375 -1.125q0.8125 0.046875 1.34375 0.421875q0.53125 0.359375 0.90625 1.21875q0.046875 0.234375 -0.078125 0.796875q-0.109375 0.546875 -0.296875 1.03125q-0.09375 0.28125 -0.46875 1.4375q-0.359375 1.140625 -0.59375 2.296875q-0.90625 2.40625 -1.34375 4.65625q-0.328125 1.734375 -0.71875 3.359375q-0.8125 3.703125 -1.21875 6.109375q-0.40625 2.390625 -0.46875 4.3125q-0.046875 2.453125 0.296875 3.3125q0.140625 0.484375 0.71875 0.484375q0.4375 0 0.71875 -0.34375q1.390625 -1.828125 2.296875 -3.21875q0.921875 -1.390625 1.96875 -3.3125q2.9375 -5.46875 6.96875 -15.015625q1.53125 -4.421875 2.078125 -5.765625q0.5625 -1.34375 1.28125 -1.734375q0.28125 -0.1875 0.578125 -0.1875q0.53125 0 0.953125 0.390625q0.203125 0.1875 0.359375 0.625q0.171875 0.421875 0.125 0.953125q-0.484375 1.6875 -2.234375 6.265625q-1.75 4.578125 -2.703125 6.65625q-0.203125 0.328125 -0.78125 1.28125q-0.09375 0.15625 -0.40625 0.703125q-0.3125 0.546875 -0.3125 0.84375q0 0.46875 -2.515625 5.015625q-2.515625 4.53125 -3.71875 6.0625q-1.578125 2.015625 -3.1875 3.140625q-1.609375 1.140625 -2.234375 1.140625zm16.372559 -4.234375q-0.390625 -0.28125 -0.53125 -0.515625q-0.140625 -0.25 -0.140625 -0.71875q0 -0.4375 0.046875 -0.71875q0.140625 -1.640625 0.71875 -3.796875l0.234375 -0.96875q0.140625 -1.1875 1.671875 -5.03125q1.546875 -3.84375 2.5 -5.234375q0.390625 -0.234375 0.828125 -0.234375q0.609375 0 1.046875 0.421875q0.296875 0.203125 0.296875 0.71875q0 0.484375 -0.375 1.421875q-0.359375 0.9375 -1.21875 2.765625q-0.1875 0.375 -0.640625 1.4375q-0.453125 1.046875 -0.453125 1.25q0 0.09375 0.046875 0.09375q0.09375 0 0.1875 -0.0625q0.09375 -0.078125 0.1875 -0.125q0.53125 -0.921875 2.5625 -2.5q2.046875 -1.59375 2.8125 -1.96875q0.34375 -0.1875 0.859375 -0.375q0.53125 -0.203125 0.734375 -0.296875q0.765625 -0.390625 1.8125 -0.390625q0.671875 0 1.171875 0.21875q0.515625 0.21875 0.703125 0.65625q0.046875 0.328125 0.265625 0.53125q0.21875 0.1875 0.3125 0.234375q0.140625 0 0.1875 0.125q0.046875 0.109375 0.046875 0.15625q0 0.34375 -0.390625 0.421875q-0.375 0.0625 -1.375 0.109375q-0.53125 0.046875 -1.109375 0.25q-0.578125 0.1875 -1.15625 0.46875q-2.6875 1.53125 -4.015625 2.40625q-1.3125 0.859375 -2.65625 2.34375q-0.515625 0.578125 -1.390625 2.0625q-0.328125 0.34375 -0.6875 1.765625q-0.359375 1.40625 -0.359375 1.734375q-0.046875 0.15625 -0.203125 0.5625q-0.140625 0.40625 -0.421875 0.78125q-0.578125 0.78125 -0.96875 0.78125q-0.421875 0 -1.140625 -0.78125zm21.785675 -19.34375q-0.34375 -0.328125 -0.578125 -1.140625q-0.234375 -0.8125 0 -0.8125q0.390625 -0.0625 0.890625 -0.84375q0.5 -0.796875 0.453125 -1.328125q0 -0.1875 0.140625 -0.359375q0.15625 -0.171875 0.34375 -0.21875q0.375 -0.234375 0.671875 -0.234375q0.8125 0 1.484375 1.15625q0.296875 0.625 0.296875 1.09375q0 0.4375 -0.25 0.890625q-0.234375 0.453125 -0.859375 1.1875q-0.8125 1.09375 -1.53125 1.09375q-0.484375 0 -1.0625 -0.484375zm-4.65625 19.5q-0.671875 -0.671875 -0.671875 -1.921875q0 -0.671875 0.234375 -1.15625q0 -0.234375 0.09375 -0.5625q0.109375 -0.34375 0.109375 -0.4375q-0.046875 -0.296875 0.375 -1.59375q0.875 -1.921875 2.3125 -6.765625q0 -0.234375 0.1875 -0.40625q0.1875 -0.171875 0.578125 -0.21875q0.375 -0.09375 0.53125 -0.09375q0.28125 0 0.5 0.21875q0.21875 0.21875 0.59375 0.78125q0.296875 0.296875 0.296875 0.875q0 0.90625 -0.625 2.203125q-0.625 1.390625 -0.8125 2.40625q-0.578125 1.296875 -0.921875 2.390625q-0.09375 0.296875 -0.296875 1.15625q-0.1875 0.859375 -0.515625 1.390625q-0.28125 1.34375 -0.53125 1.875q-0.234375 0.53125 -0.53125 0.53125q-0.328125 0 -0.90625 -0.671875zm14.444763 1.4375q-0.671875 -0.1875 -1.109375 -0.421875q-0.421875 -0.25 -1.140625 -0.921875q-0.859375 -1.15625 -1.125 -2.140625q-0.265625 -0.984375 -0.265625 -3.140625q0 -1.15625 1.296875 -6.34375q-0.09375 0.34375 0.328125 -1.390625q0.140625 -0.515625 -0.390625 -0.65625q-0.515625 -0.15625 -1.484375 -0.15625q-0.8125 0 -0.953125 -0.09375q-0.140625 -0.046875 -0.171875 -0.140625q-0.015625 -0.09375 -0.015625 -0.140625q0 -0.25 -0.203125 -0.578125q-0.046875 -0.046875 -0.046875 -0.15625q0 -0.234375 0.265625 -0.515625q0.265625 -0.296875 0.65625 -0.34375q0.234375 -0.046875 1.09375 -0.140625q0.875 -0.09375 1.640625 -0.375q0.765625 -0.296875 1.203125 -0.828125q0.609375 -1.578125 1.5625 -3.5625q0.96875 -2.0 1.3125 -2.390625q0.765625 -0.375 1.046875 -0.375q0.296875 0 0.484375 0.1875q0.1875 0.1875 0.53125 0.671875q0.046875 0.09375 0.234375 0.34375q0.203125 0.234375 0.203125 0.46875q0 0.390625 -0.359375 1.15625q-0.359375 0.765625 -1.421875 2.6875l-0.625 1.203125q0.140625 0.046875 0.671875 0.046875q0.53125 0 0.859375 -0.046875q1.0625 -0.203125 1.96875 -0.203125q0.484375 0 0.671875 0.046875q1.109375 0 1.609375 0.421875q0.5 0.40625 0.609375 1.359375q0.09375 0.53125 -0.203125 0.625q-0.28125 0.09375 -1.625 0.09375q-5.5625 0.25 -5.625 0.4375q-0.1875 0.140625 -0.71875 1.6875q-0.515625 1.53125 -0.90625 2.921875q-0.625 2.875 -0.625 5.078125q0 2.015625 0.578125 2.6875q0.234375 0.25 0.90625 0.25q0.671875 0 1.46875 -0.265625q0.796875 -0.265625 1.3125 -0.703125q0.875 -0.71875 1.453125 -0.71875q0.28125 0 0.453125 0.171875q0.171875 0.171875 0.171875 0.40625q0 0.53125 -0.578125 1.34375q-0.71875 1.109375 -1.921875 1.828125q-1.203125 0.71875 -2.3125 0.71875q-0.515625 0 -0.765625 -0.09375zm17.809906 -20.546875q-0.140625 0.140625 -0.28125 0.140625q-0.203125 0 -0.625 -0.28125q-0.484375 -0.046875 -1.28125 -0.84375q-0.78125 -0.796875 -0.78125 -1.03125q-0.109375 -0.953125 0.28125 -2.0625q0.390625 -1.109375 1.390625 -1.15625q0.140625 0 0.375 0.078125q0.25 0.0625 0.828125 0.3125q0.09375 0.1875 0.40625 0.8125q0.3125 0.625 0.484375 1.203125q0.171875 0.578125 0.171875 1.046875q0 1.15625 -0.96875 1.78125zm-5.421875 19.15625q-0.71875 0 -1.28125 -0.90625q-0.546875 -0.921875 -0.640625 -1.828125q0.1875 -1.828125 0.28125 -2.59375q0.390625 -1.78125 1.234375 -4.875q0.84375 -3.09375 1.03125 -3.484375q0.140625 -0.234375 0.4375 -0.234375q0.28125 0 0.609375 0.1875q0.34375 0.1875 0.578125 0.4375q0.390625 0.53125 0.390625 1.203125q0 1.0 -0.96875 4.21875q-0.671875 2.40625 -0.859375 3.421875q-0.1875 1.0 -0.140625 2.140625q-0.046875 0.34375 -0.171875 1.140625q-0.109375 0.78125 -0.21875 0.984375q-0.09375 0.1875 -0.28125 0.1875zm8.788513 -0.625q-0.15625 0 -0.515625 -0.234375q-0.359375 -0.25 -0.59375 -0.484375q-0.34375 -0.34375 -0.421875 -0.71875q-0.0625 -0.390625 -0.0625 -1.78125q0 -1.484375 0.59375 -3.265625q0.609375 -1.78125 2.140625 -5.140625l1.59375 -3.359375q0.140625 -0.328125 0.671875 -0.953125l0.46875 0q0.34375 0 0.75 0.4375q0.40625 0.421875 0.609375 1.0q0 0.765625 -0.21875 1.4375q-0.21875 0.671875 -1.140625 1.875q-0.375 0.578125 -0.90625 1.828125q-0.53125 1.25 -0.71875 2.109375q-0.140625 0.234375 -0.359375 0.8125q-0.21875 0.578125 -0.5 1.203125l-0.25 1.0625l3.21875 -3.3125q2.109375 -2.125 3.421875 -3.078125q1.328125 -0.953125 2.203125 -0.953125q1.0 0 1.625 1.28125q0.4375 0.734375 0.578125 1.140625q0.140625 0.40625 0.140625 1.265625q0 0.296875 -0.09375 1.640625l0 2.96875q0.671875 -0.140625 1.21875 -0.375q0.5625 -0.25 0.84375 -0.34375q1.109375 -0.484375 2.453125 -0.578125q-0.09375 0.8125 -0.71875 1.78125q-0.625 0.953125 -1.546875 1.609375q-0.90625 0.640625 -1.765625 0.640625q-0.671875 0 -1.421875 -0.625q-0.75 -0.625 -1.078125 -1.390625q-0.1875 -0.53125 -0.21875 -1.296875q-0.015625 -0.765625 -0.015625 -2.15625l0 -1.78125q0 -0.46875 -0.296875 -0.46875q-0.1875 0 -0.90625 0.5625q-0.96875 0.875 -3.125 3.125q-2.0625 2.15625 -3.578125 3.34375q-1.5 1.171875 -2.078125 1.171875zm33.02191 -12.390625q0.28125 0.578125 0.28125 1.109375q0 0.71875 -0.578125 1.4375q-0.140625 0.234375 -0.53125 0.75q-0.375 0.5 -0.671875 1.03125q-0.28125 0.53125 -0.421875 1.203125q-0.1875 1.09375 -1.15625 4.703125l-0.53125 1.859375l-0.765625 2.984375q-2.15625 7.4375 -4.3125 8.59375q-0.625 0.234375 -1.203125 0.234375q-1.0625 0 -2.1875 -0.703125q-1.125 -0.6875 -1.9375 -1.890625q-0.484375 -0.671875 -0.9375 -2.140625q-0.453125 -1.453125 -0.171875 -1.640625q0.09375 -0.109375 0.34375 -0.109375q0.328125 0 0.703125 0.21875q0.390625 0.21875 0.484375 0.5q0.203125 0.53125 0.828125 1.390625q0.625 0.875 0.90625 0.921875q0.765625 0.390625 1.296875 0.390625q0.4375 0 0.8125 -0.296875q0.765625 -0.625 1.3125 -1.609375q0.5625 -0.984375 1.234375 -3.140625l0.390625 -1.390625q1.140625 -4.21875 1.671875 -5.46875q0.234375 -0.78125 0.484375 -1.203125l-0.859375 0.765625q-0.578125 0.53125 -1.203125 1.015625q-0.625 0.46875 -1.296875 0.765625q-0.34375 0.421875 -1.6875 0.421875q-0.953125 0 -1.921875 -0.28125q-1.0 -0.53125 -1.25 -0.8125q-0.234375 -0.296875 -0.671875 -1.34375q-0.1875 -0.390625 -0.1875 -1.203125q0 -2.0625 0.96875 -4.421875q0.90625 -1.875 2.875 -3.984375q1.96875 -2.109375 3.40625 -2.546875q0.578125 -0.28125 1.0625 -0.28125q0.515625 0 1.09375 0.1875q0.765625 0.09375 1.203125 0.34375q0.4375 0.234375 1.4375 1.09375q1.15625 1.15625 1.6875 2.546875zm-5.28125 4.75q0.8125 -1.09375 1.140625 -2.359375q0.34375 -1.28125 0.25 -2.53125q-0.046875 -0.671875 -0.203125 -0.9375q-0.140625 -0.265625 -0.515625 -0.265625q-0.90625 0 -2.109375 0.875q-1.203125 0.859375 -2.3125 2.25q-0.71875 0.953125 -1.203125 2.296875q-0.5625 1.640625 -0.5625 3.03125q0 1.046875 0.375 1.203125q1.484375 -0.046875 2.703125 -0.859375q1.234375 -0.828125 2.4375 -2.703125zm20.390442 18.15625q-0.28125 0.140625 -0.515625 0.140625q-0.671875 0 -1.15625 -0.703125q-0.484375 -0.6875 -0.484375 -1.65625q0 -0.421875 0.140625 -0.953125q0.0625 -0.1875 0.265625 -0.890625q0.21875 -0.703125 0.265625 -1.171875q0.09375 -0.53125 0.578125 -1.921875q0.484375 -1.390625 0.765625 -1.875q0.25 -0.4375 0.390625 -1.03125q0.140625 -0.59375 0.140625 -1.03125q0.34375 -1.0625 0.625 -1.4375q0.34375 -1.0625 0.71875 -1.640625q0.046875 -0.140625 0.109375 -0.6875q0.078125 -0.5625 0.328125 -0.65625q0.140625 -0.671875 0.234375 -0.90625q0.34375 -1.484375 1.25 -3.75q0.484375 -1.25 0.484375 -2.484375q0 -1.5 -0.71875 -1.734375q-0.53125 -0.1875 -0.53125 -0.765625q0 -0.34375 0.1875 -0.625q0.1875 -0.28125 0.53125 -0.4375q0.375 -0.140625 0.765625 -0.140625q0.53125 0 0.984375 0.15625q0.453125 0.140625 0.40625 0.234375q0 0.140625 0.046875 0.21875q0.046875 0.0625 0.1875 0.0625q0.15625 -0.1875 0.71875 0.796875q0.578125 0.984375 0.578125 1.359375q-0.09375 0.15625 -0.078125 0.203125q0.03125 0.046875 0.1875 0.046875q0.328125 -0.15625 1.265625 -0.65625q0.9375 -0.5 1.171875 -0.78125q0.09375 -0.0625 0.328125 -0.171875q0.25 -0.125 0.390625 -0.265625q0.53125 -0.1875 1.203125 -0.1875q0.765625 0 1.484375 0.234375q0.71875 0.234375 1.203125 0.671875q1.015625 1.296875 1.015625 2.453125q0 1.0 -0.671875 2.640625q-0.09375 0.28125 -0.609375 1.125q-0.5 0.84375 -0.6875 1.125q-1.015625 1.578125 -2.40625 2.734375q-1.390625 1.15625 -3.21875 2.15625q-0.515625 0.34375 -1.078125 0.53125q-0.546875 0.1875 -0.9375 0.1875q-0.1875 0 -0.375 -0.09375q-0.53125 -0.375 -0.96875 -1.625q-0.625 1.484375 -0.71875 2.015625q0 0.140625 -0.078125 0.453125q-0.0625 0.3125 -0.25 0.453125q0 0.046875 -0.078125 0.25q-0.078125 0.1875 -0.3125 0.515625q-0.71875 2.015625 -0.90625 2.5q-0.8125 2.3125 -0.96875 3.03125q-0.09375 1.1875 -0.53125 2.5q-0.421875 1.328125 -0.671875 1.484375zm5.71875 -13.6875q0.4375 -0.234375 2.34375 -1.703125q1.921875 -1.46875 2.40625 -2.046875q0.921875 -1.09375 1.25 -2.0625q0.484375 -1.1875 0.671875 -1.765625q0.140625 -0.296875 0.140625 -0.671875q0 -0.53125 -0.28125 -0.828125q-0.296875 -0.046875 -1.28125 0.3125q-0.984375 0.359375 -2.109375 1.0625q-1.125 0.703125 -1.890625 1.703125q-0.859375 1.15625 -1.375 2.5q-0.5 1.34375 -0.5 2.296875q0 1.203125 0.625 1.203125zm14.644043 4.171875q-0.1875 0.34375 -0.484375 0.34375q-0.28125 0 -0.59375 -0.1875q-0.3125 -0.203125 -0.359375 -0.25q-0.71875 0 -0.921875 -0.765625q-0.046875 -0.09375 -0.046875 -0.4375q0 -0.625 0.578125 -2.4375l0.34375 -1.546875q0.46875 -2.109375 0.859375 -3.546875q0.140625 -0.234375 0.578125 -1.625q0.28125 -1.0625 0.765625 -2.0625q0.578125 -2.171875 1.828125 -4.28125q0.09375 -0.140625 0.375 -0.375q0.296875 -0.25 0.4375 -0.25q0.28125 -0.28125 0.625 -0.28125q0.328125 0 0.859375 0.421875q0.484375 0.578125 0.484375 1.109375q0 0.90625 -1.203125 2.734375l-0.765625 1.875q-0.09375 0.234375 -0.484375 1.125q-0.375 0.890625 -0.484375 1.609375q0.625 -0.859375 2.265625 -2.5q0.953125 -0.953125 1.578125 -1.40625q0.625 -0.453125 1.828125 -1.234375q0.859375 -0.625 1.53125 -0.90625q0.671875 -0.28125 1.484375 -0.28125q0.4375 0 0.671875 0.046875q0.671875 -0.046875 1.0625 0.671875q0.390625 0.71875 0.484375 1.859375q-0.578125 -0.09375 -0.8125 -0.09375q-0.96875 0 -1.71875 0.390625q-0.734375 0.375 -1.21875 0.75q-0.484375 0.359375 -0.625 0.453125q-2.59375 1.671875 -4.03125 3.15625q-1.484375 1.640625 -2.09375 2.40625q-0.59375 0.765625 -0.875 1.53125q-0.15625 0.34375 -0.828125 2.0q-0.671875 1.65625 -1.09375 1.984375zm19.71753 0.828125q-0.5625 0.046875 -0.921875 -0.078125q-0.359375 -0.125 -1.03125 -0.546875q-2.078125 -1.6875 -2.03125 -3.3125q0.0625 -0.15625 0.0625 -0.4375q0 -0.28125 -0.0625 -0.453125q-0.046875 -0.171875 -0.046875 -0.21875q-0.1875 -0.140625 -0.21875 -0.203125q-0.015625 -0.078125 0.046875 -0.171875q0.078125 -0.109375 0.125 -0.203125q0.203125 -0.046875 0.203125 -0.1875q0 -0.140625 -0.109375 -0.34375q-0.140625 -0.375 0.171875 -1.734375q0.3125 -1.375 0.84375 -2.578125q0.390625 -0.90625 1.21875 -2.34375q0.84375 -1.453125 1.5625 -2.21875q1.015625 -1.15625 1.84375 -1.78125q0.84375 -0.625 1.953125 -1.0q1.0 -0.4375 1.390625 -0.4375q0.484375 0 1.203125 0.578125q1.140625 0.34375 1.734375 0.9375q0.609375 0.59375 0.953125 1.84375q0.28125 1.015625 0.28125 2.265625q0 2.6875 -1.671875 5.890625q-0.875 1.734375 -1.6875 2.671875q-0.8125 0.9375 -2.25 2.1875q-1.015625 0.8125 -1.765625 1.25q-0.734375 0.421875 -1.796875 0.625zm3.84375 -5.71875q1.015625 -1.484375 1.53125 -2.703125q0.53125 -1.234375 0.875 -3.0625q0.046875 -0.1875 0.046875 -0.765625q0 -0.953125 -0.203125 -1.8125q-0.1875 -0.875 -0.46875 -0.921875q-0.390625 -0.140625 -0.71875 -0.140625q-1.109375 0 -2.359375 1.296875q-1.140625 1.34375 -1.984375 3.25q-0.84375 1.890625 -1.65625 4.625q-0.25 0.953125 -0.25 1.53125q0 0.859375 0.328125 1.375q0.34375 0.5 0.96875 0.5q0.78125 0 1.78125 -0.796875q1.015625 -0.796875 2.109375 -2.375zm20.834656 6.90625q-1.203125 0.296875 -1.625 -1.046875q-0.671875 -1.875 -0.671875 -3.9375q0 -0.578125 0.046875 -0.8125l0.09375 -1.015625l-1.875 1.484375q-1.53125 1.34375 -3.046875 2.015625q-1.515625 0.671875 -2.765625 0.671875q-0.8125 -0.140625 -1.5625 -0.6875q-0.734375 -0.546875 -1.078125 -1.328125q-0.1875 -0.375 -0.1875 -1.140625q0 -1.78125 0.953125 -4.203125q0.96875 -2.421875 2.40625 -4.015625q2.0625 -3.109375 4.609375 -3.109375q1.203125 0 2.40625 0.71875q1.1875 0.46875 1.390625 0.46875q0.28125 0 0.421875 -0.234375q0.15625 -0.234375 0.296875 -0.859375q0.53125 -2.21875 1.0 -3.703125q1.0625 -3.15625 1.828125 -5.078125q0.765625 -1.921875 1.875 -4.234375q0.484375 -1.0 0.84375 -1.3125q0.359375 -0.3125 0.78125 -0.265625q1.0625 0 1.640625 1.4375q0.140625 0.34375 0.140625 0.671875q0 0.34375 -0.28125 0.90625q-1.25 2.171875 -3.078125 7.0625q-1.828125 4.890625 -2.828125 8.5q-0.4375 1.578125 -0.75 4.5625q-0.3125 2.96875 -0.3125 4.9375q0 0.859375 0.09375 1.25q0.25 0.8125 0.25 1.4375q0 0.484375 -0.25 0.640625q-0.234375 0.171875 -0.765625 0.21875zm-8.109375 -5.328125q1.109375 -0.234375 2.6875 -1.4375q0.28125 -0.1875 1.390625 -1.0q1.109375 -0.828125 1.671875 -1.734375q0.578125 -0.90625 0.828125 -2.0625q0.046875 -0.859375 -0.171875 -1.40625q-0.21875 -0.5625 -0.84375 -1.09375q-0.46875 -0.328125 -1.203125 -0.328125q-1.28125 0 -2.390625 1.046875q-1.296875 1.15625 -2.3125 2.984375q-1.0 1.828125 -1.53125 4.21875q-0.140625 0.921875 0.96875 0.921875q0.5625 0 0.90625 -0.109375zm25.384033 4.328125q-1.140625 -1.109375 -1.71875 -3.265625q-0.09375 -0.28125 -0.09375 -1.0q0 -0.734375 0 -1.015625q-0.296875 0.71875 -1.0625 1.296875q-1.109375 1.109375 -2.203125 1.625q-1.6875 1.109375 -2.734375 1.109375q-0.96875 0 -1.828125 -1.0625q-0.625 -0.515625 -0.9375 -1.046875q-0.3125 -0.53125 -0.3125 -1.296875q0 -0.53125 0.140625 -1.15625q0.09375 -1.78125 0.5 -3.40625q0.421875 -1.625 1.5625 -4.171875q1.546875 -3.03125 2.21875 -4.03125q0.234375 -0.09375 0.625 -0.09375q0.46875 0 0.78125 0.28125q0.3125 0.28125 0.359375 0.765625q0.15625 0.1875 0.15625 0.53125q0 1.203125 -1.453125 3.9375q-1.859375 4.515625 -1.859375 6.234375q0 1.015625 0.5625 1.203125q0.25 0.140625 0.53125 0.140625q1.203125 0 2.875 -1.625q1.6875 -1.640625 3.21875 -5.234375q0.671875 -1.640625 0.828125 -3.359375q-0.046875 -0.140625 -0.046875 -0.4375q0 -0.859375 0.859375 -1.390625q0.1875 -0.28125 0.515625 -0.453125q0.34375 -0.171875 0.4375 0.03125l0.765625 -0.0625q0.15625 -0.046875 0.296875 0.265625q0.140625 0.3125 0.28125 0.40625q0.34375 0.296875 0.34375 1.0625q0 1.578125 -1.390625 4.84375q-0.921875 1.921875 -1.234375 2.953125q-0.3125 1.03125 -0.359375 2.0q0 1.8125 1.390625 3.015625q0.484375 0.34375 0.578125 0.734375q0.09375 0.375 0.046875 1.046875q-0.09375 0.4375 -0.546875 0.703125q-0.453125 0.25 -0.984375 0.25q-0.625 0 -1.109375 -0.328125zm11.338196 -1.015625q-1.484375 0 -1.96875 -0.15625q-0.484375 -0.171875 -1.109375 -0.75q-0.484375 -0.953125 -0.953125 -1.4375q-0.203125 -0.53125 -0.203125 -1.59375q0 -1.1875 0.28125 -2.609375q0.296875 -1.421875 0.78125 -2.65625q0.1875 -0.390625 0.3125 -0.71875q0.125 -0.34375 0.171875 -0.4375q0 -0.34375 1.21875 -2.09375q1.21875 -1.75 1.9375 -2.421875q0.34375 -0.390625 1.03125 -0.8125q0.703125 -0.4375 1.234375 -0.625q1.34375 -0.484375 2.34375 -0.484375q1.390625 0 2.359375 1.296875q1.0625 1.0625 1.0625 2.359375q0 0.46875 -0.15625 1.046875q-0.46875 1.921875 -1.390625 1.921875q-0.625 0 -1.203125 -0.71875q-0.1875 -0.484375 -0.1875 -0.625q0 -0.140625 0.1875 -0.8125q0.109375 -0.484375 0.109375 -0.671875q0 -0.578125 -0.203125 -1.0q-0.1875 -0.4375 -0.53125 -0.4375q-1.09375 0 -2.875 1.921875q-0.625 0.671875 -1.609375 2.109375q-0.984375 1.4375 -1.453125 2.59375q-0.484375 1.4375 -0.78125 2.359375q-0.28125 0.90625 -0.375 1.140625q0 0.09375 0.109375 0.34375q0.125 0.234375 0.125 0.375q0 0.328125 0.140625 0.53125q0.15625 0.1875 0.53125 0.375q0.53125 0.390625 1.25 0.390625q0.765625 0 1.78125 -0.484375q0.625 -0.28125 1.765625 -1.25l1.15625 -0.859375q0.34375 -0.234375 0.59375 -0.40625q0.265625 -0.171875 0.40625 -0.234375q0.15625 -0.078125 0.15625 0.015625q0 0.1875 0.140625 0.1875q0.140625 0 0.34375 -0.1875q0.421875 -0.578125 1.09375 -0.578125q0.390625 0 0.390625 0.140625l-0.046875 0.25q0 0.234375 0.234375 0.46875q0 0.203125 -0.125 0.515625q-0.109375 0.3125 -0.3125 0.5q-0.28125 0.4375 -0.984375 1.03125q-0.6875 0.59375 -0.921875 0.796875l-0.0625 0q-0.234375 0 -0.671875 0.421875q-0.71875 0.671875 -1.234375 0.671875q-0.203125 0.109375 -0.4375 0.234375q-0.234375 0.109375 -0.234375 0.25q-0.484375 0.484375 -1.15625 0.65625q-0.671875 0.15625 -2.0625 0.15625zm16.129272 3.515625q-1.296875 -0.25 -1.90625 -0.90625q-0.59375 -0.640625 -0.59375 -1.9375q0 -0.328125 0.09375 -1.1875q0.1875 -0.671875 0.296875 -1.34375q0.234375 -1.0625 0.46875 -1.25q0.046875 -0.046875 0.09375 -0.1875q0.046875 -0.15625 -0.09375 -0.25q0 -0.625 0.4375 -1.734375q0.09375 -0.328125 0.234375 -0.65625q0.140625 -0.34375 0.203125 -0.4375q-0.109375 -0.09375 -0.109375 -0.296875q0 -0.234375 0.265625 -0.46875q0.265625 -0.25 0.390625 -0.4375q0.125 -0.1875 -0.03125 -0.390625q-0.09375 -0.234375 0.921875 -2.15625q0.625 -1.25 0.671875 -1.390625q-0.046875 -0.140625 0.6875 -1.765625q0.75 -1.640625 1.1875 -2.453125q0.421875 -0.25 -0.34375 -0.34375q-0.765625 -0.09375 -1.875 -0.046875q-1.578125 -0.046875 -2.453125 -0.15625q-0.859375 -0.125 -1.390625 -0.421875q-0.421875 -0.53125 -0.421875 -0.8125q0 -0.484375 1.15625 -0.53125q1.234375 -0.046875 3.828125 -0.328125l2.453125 -0.203125l0.140625 -0.8125q0.671875 -1.140625 0.953125 -1.78125q0.296875 -0.65625 0.4375 -1.484375q0.140625 -0.1875 0.5 -0.953125q0.375 -0.765625 0.46875 -1.484375q0.515625 -0.921875 0.96875 -1.75q0.46875 -0.84375 0.5625 -0.984375q0.53125 -0.4375 0.71875 -0.4375q0.296875 0 0.96875 0.484375q1.1875 0.8125 1.1875 1.390625q0 0.28125 -0.28125 0.578125q-0.1875 0.375 -0.578125 1.53125q-0.328125 0.4375 -0.71875 1.1875q-0.390625 0.734375 -0.53125 1.40625q-0.375 0.8125 -0.75 1.46875q-0.359375 0.640625 -0.5 0.640625q0.046875 0.28125 0.1875 0.390625q0.15625 0.09375 0.484375 0.09375q0.25 0 0.609375 -0.046875q0.359375 -0.046875 0.890625 -0.046875q0.46875 -0.0625 0.828125 -0.15625q0.359375 -0.09375 0.703125 -0.09375q0.234375 0 0.578125 0.140625q0.46875 0.625 0.46875 1.296875q0 0.53125 -0.421875 0.765625q-0.25 0.0625 -1.0625 0.296875q-0.8125 0.234375 -1.765625 0.28125l-2.546875 0.25l-0.828125 1.625q-0.328125 0.578125 -0.578125 1.109375q-0.234375 0.53125 -0.328125 0.625q0 0.234375 -0.390625 0.953125q-0.375 0.71875 -0.5625 1.15625q-0.25 0.671875 -0.59375 1.328125q-0.328125 0.640625 -0.421875 0.828125q-0.140625 0 -0.171875 0.078125q-0.015625 0.0625 -0.015625 0.21875l0.09375 0.375q0 0.25 -0.234375 0.484375q-0.203125 0.09375 -0.375 0.34375q-0.15625 0.234375 -0.203125 0.328125q0.09375 0.09375 0.09375 0.234375q0 0.34375 -0.34375 0.875q0 0.8125 -0.671875 2.4375q0.046875 0.875 0.09375 1.109375q0.0625 0.234375 0.25 0.1875l0.1875 0l0.625 -0.046875q0.671875 -0.28125 -0.71875 3.359375l-0.765625 1.296875q-0.046875 0.09375 -0.34375 0.546875q-0.28125 0.46875 -0.46875 0.46875z" fill-rule="nonzero"/><path fill="#000000" fill-opacity="0.0" d="m336.10495 675.45404l177.76376 0l0 53.039368l-177.76376 0z" fill-rule="evenodd"/><path stroke="#000000" stroke-width="3.0" stroke-linejoin="round" stroke-linecap="butt" d="m336.10495 675.45404l177.76376 0l0 53.039368l-177.76376 0z" fill-rule="evenodd"/><path fill="#000000" d="m358.3392 720.6319q-0.53125 -0.28125 -0.75 -0.53125q-0.203125 -0.234375 -0.203125 -0.609375q0 -0.484375 0.40625 -1.375q0.40625 -0.890625 1.40625 -2.8125q0.296875 -0.625 1.109375 -2.203125q2.78125 -5.328125 2.78125 -5.8125q-0.046875 -0.09375 -0.046875 -0.28125q0 -0.484375 0.765625 -0.859375q1.109375 -1.109375 1.828125 -2.359375q0.484375 -1.046875 1.296875 -2.515625q0.8125 -1.46875 2.015625 -3.484375q0.578125 -1.0 1.71875 -2.921875q1.78125 -3.171875 4.5625 -6.921875q1.109375 -1.484375 1.828125 -1.4375q0.90625 0 2.03125 0.84375q1.140625 0.84375 1.5625 1.890625q0.203125 0.34375 0.203125 1.4375q0 1.5 -0.34375 5.046875q-0.09375 0.625 -0.1875 1.96875q-0.140625 2.15625 -0.4375 4.609375q-0.515625 5.375 -0.765625 8.40625q-0.234375 3.015625 -0.234375 5.65625q0 1.34375 0.046875 1.96875l0 0.328125l-0.046875 1.109375q-0.296875 0.296875 -0.875 0.296875q-0.671875 0 -1.296875 -0.3125q-0.609375 -0.3125 -0.71875 -0.75q-0.046875 -0.046875 -0.140625 -0.09375q-0.09375 -0.046875 -0.09375 -0.4375l0.046875 -1.046875l0.140625 -2.6875l0.25 -7.78125l-0.625 0.046875q-0.96875 0 -4.28125 0.390625q-3.3125 0.375 -4.125 0.609375q-0.421875 0 -1.046875 0.578125q-0.625 0.578125 -1.109375 1.5q-0.140625 0.46875 -0.671875 1.359375q-0.53125 0.890625 -0.53125 1.03125q-0.28125 0.1875 -0.5 0.5q-0.21875 0.3125 -0.265625 0.421875q0 0.515625 -0.984375 2.6875q-0.984375 2.15625 -1.9375 3.59375l-1.015625 1.53125l-0.765625 -0.578125zm9.9375 -15.453125q0.28125 -0.046875 1.234375 -0.203125q0.96875 -0.171875 1.734375 -0.21875q3.46875 -0.828125 4.234375 -0.828125q0.328125 0 0.625 0.15625q0.140625 0.1875 0.296875 0.265625q0.171875 0.0625 0.21875 0.0625q0.109375 -0.28125 0.609375 -5.203125q0.5 -4.921875 0.546875 -6.5625l0.140625 -2.390625q-0.28125 0 -1.25 1.109375q-0.953125 1.09375 -2.125 2.84375q-1.171875 1.75 -2.09375 3.578125q-0.484375 0.859375 -0.9375 1.609375q-0.453125 0.75 -0.640625 0.75q-0.34375 0.328125 -1.59375 2.59375q-1.234375 2.25 -1.0 2.4375zm26.631683 13.78125q-1.140625 -1.109375 -1.71875 -3.265625q-0.09375 -0.28125 -0.09375 -1.0q0 -0.734375 0 -1.015625q-0.296875 0.71875 -1.0625 1.296875q-1.109375 1.109375 -2.203125 1.625q-1.6875 1.109375 -2.734375 1.109375q-0.96875 0 -1.828125 -1.0625q-0.625 -0.515625 -0.9375 -1.046875q-0.3125 -0.53125 -0.3125 -1.296875q0 -0.53125 0.140625 -1.15625q0.09375 -1.78125 0.5 -3.40625q0.421875 -1.625 1.5625 -4.171875q1.546875 -3.03125 2.21875 -4.03125q0.234375 -0.09375 0.625 -0.09375q0.46875 0 0.78125 0.28125q0.3125 0.28125 0.359375 0.765625q0.15625 0.1875 0.15625 0.53125q0 1.203125 -1.453125 3.9375q-1.859375 4.515625 -1.859375 6.234375q0 1.015625 0.5625 1.203125q0.25 0.140625 0.53125 0.140625q1.203125 0 2.875 -1.625q1.6875 -1.640625 3.21875 -5.234375q0.671875 -1.640625 0.828125 -3.359375q-0.046875 -0.140625 -0.046875 -0.4375q0 -0.859375 0.859375 -1.390625q0.1875 -0.28125 0.515625 -0.453125q0.34375 -0.171875 0.4375 0.03125l0.765625 -0.0625q0.15625 -0.046875 0.296875 0.265625q0.140625 0.3125 0.28125 0.40625q0.34375 0.296875 0.34375 1.0625q0 1.578125 -1.390625 4.84375q-0.921875 1.921875 -1.234375 2.953125q-0.3125 1.03125 -0.359375 2.0q0 1.8125 1.390625 3.015625q0.484375 0.34375 0.578125 0.734375q0.09375 0.375 0.046875 1.046875q-0.09375 0.4375 -0.546875 0.703125q-0.453125 0.25 -0.984375 0.25q-0.625 0 -1.109375 -0.328125zm18.869415 1.0q-1.203125 0.296875 -1.625 -1.046875q-0.671875 -1.875 -0.671875 -3.9375q0 -0.578125 0.046875 -0.8125l0.09375 -1.015625l-1.875 1.484375q-1.53125 1.34375 -3.046875 2.015625q-1.515625 0.671875 -2.765625 0.671875q-0.8125 -0.140625 -1.5625 -0.6875q-0.734375 -0.546875 -1.078125 -1.328125q-0.1875 -0.375 -0.1875 -1.140625q0 -1.78125 0.953125 -4.203125q0.96875 -2.421875 2.40625 -4.015625q2.0625 -3.109375 4.609375 -3.109375q1.203125 0 2.40625 0.71875q1.1875 0.46875 1.390625 0.46875q0.28125 0 0.421875 -0.234375q0.15625 -0.234375 0.296875 -0.859375q0.53125 -2.21875 1.0 -3.703125q1.0625 -3.15625 1.828125 -5.078125q0.765625 -1.921875 1.875 -4.234375q0.484375 -1.0 0.84375 -1.3125q0.359375 -0.3125 0.78125 -0.265625q1.0625 0 1.640625 1.4375q0.140625 0.34375 0.140625 0.671875q0 0.34375 -0.28125 0.90625q-1.25 2.171875 -3.078125 7.0625q-1.828125 4.890625 -2.828125 8.5q-0.4375 1.578125 -0.75 4.5625q-0.3125 2.96875 -0.3125 4.9375q0 0.859375 0.09375 1.25q0.25 0.8125 0.25 1.4375q0 0.484375 -0.25 0.640625q-0.234375 0.171875 -0.765625 0.21875zm-8.109375 -5.328125q1.109375 -0.234375 2.6875 -1.4375q0.28125 -0.1875 1.390625 -1.0q1.109375 -0.828125 1.671875 -1.734375q0.578125 -0.90625 0.828125 -2.0625q0.046875 -0.859375 -0.171875 -1.40625q-0.21875 -0.5625 -0.84375 -1.09375q-0.46875 -0.328125 -1.203125 -0.328125q-1.28125 0 -2.390625 1.046875q-1.296875 1.15625 -2.3125 2.984375q-1.0 1.828125 -1.53125 4.21875q-0.140625 0.921875 0.96875 0.921875q0.5625 0 0.90625 -0.109375zm22.31717 -16.21875q-0.140625 0.140625 -0.28125 0.140625q-0.203125 0 -0.625 -0.28125q-0.484375 -0.046875 -1.28125 -0.84375q-0.78125 -0.796875 -0.78125 -1.03125q-0.109375 -0.953125 0.28125 -2.0625q0.390625 -1.109375 1.390625 -1.15625q0.140625 0 0.375 0.078125q0.25 0.0625 0.828125 0.3125q0.09375 0.1875 0.40625 0.8125q0.3125 0.625 0.484375 1.203125q0.171875 0.578125 0.171875 1.046875q0 1.15625 -0.96875 1.78125zm-5.421875 19.15625q-0.71875 0 -1.28125 -0.90625q-0.546875 -0.921875 -0.640625 -1.828125q0.1875 -1.828125 0.28125 -2.59375q0.390625 -1.78125 1.234375 -4.875q0.84375 -3.09375 1.03125 -3.484375q0.140625 -0.234375 0.4375 -0.234375q0.28125 0 0.609375 0.1875q0.34375 0.1875 0.578125 0.4375q0.390625 0.53125 0.390625 1.203125q0 1.0 -0.96875 4.21875q-0.671875 2.40625 -0.859375 3.421875q-0.1875 1.0 -0.140625 2.140625q-0.046875 0.34375 -0.171875 1.140625q-0.109375 0.78125 -0.21875 0.984375q-0.09375 0.1875 -0.28125 0.1875zm9.835388 0.328125q-1.53125 -0.625 -2.15625 -1.609375q-0.625 -0.984375 -0.625 -2.75q0 -0.875 0.140625 -2.015625l0.09375 -1.734375q0 -0.4375 -0.09375 -0.671875q-0.09375 -0.234375 -0.421875 -0.53125q-0.109375 -0.09375 -0.5 -0.46875q-0.375 -0.390625 -0.328125 -0.625l-0.046875 -0.25q0 -0.328125 0.125 -0.609375q0.125 -0.296875 0.265625 -0.296875q0.140625 0 0.375 -0.0625q0.25 -0.078125 0.4375 -0.03125q0.671875 0 0.671875 0.28125q0.1875 0.390625 0.640625 0.078125q0.46875 -0.3125 0.890625 -1.234375q0.671875 -1.046875 1.984375 -2.21875q1.328125 -1.1875 2.203125 -1.65625q0.328125 -0.203125 1.09375 -0.359375q0.78125 -0.171875 1.34375 -0.171875q0.875 0 1.515625 0.390625q0.65625 0.375 1.328125 1.09375q0.90625 0.671875 0.90625 2.109375q0 1.015625 -0.484375 2.0625q-0.1875 0.71875 -1.515625 1.828125q-1.3125 1.109375 -2.421875 1.53125q-1.34375 0.34375 -3.0625 0.34375q-1.15625 0 -1.484375 -0.1875q-0.578125 -0.34375 -0.828125 2.578125q-0.046875 0.34375 -0.046875 0.921875q0 0.8125 0.25 1.296875q0.046875 0.046875 0.328125 0.359375q0.296875 0.3125 0.71875 0.53125q0.4375 0.203125 0.921875 0.203125q0.421875 0 0.671875 -0.09375q0.515625 -0.140625 1.0 -0.546875q0.484375 -0.40625 1.34375 -1.265625q0.765625 -0.78125 1.109375 -1.0625q0.234375 -0.4375 0.953125 -0.4375q0.1875 0 0.671875 0.09375q0.4375 0.34375 0.4375 0.734375q0 0.375 -0.484375 1.4375q-0.234375 0.46875 -1.171875 1.3125q-0.9375 0.84375 -1.65625 1.328125q-1.484375 0.8125 -2.984375 0.8125q-0.90625 0 -2.109375 -0.4375zm2.828125 -9.734375q0.484375 -0.09375 1.390625 -0.234375q0.921875 -0.15625 1.515625 -0.65625q0.609375 -0.5 1.421875 -1.75q0.140625 -0.390625 0.140625 -0.765625q0 -0.734375 -0.28125 -1.015625q-0.34375 -0.328125 -0.765625 -0.328125q-0.671875 0 -1.390625 0.5625q-0.484375 0.15625 -1.421875 1.0625q-0.9375 0.90625 -1.609375 1.796875q-0.671875 0.890625 -0.4375 1.03125q-0.09375 0.140625 0.484375 0.21875q0.578125 0.078125 0.953125 0.078125zm24.303162 10.3125q-0.734375 0 -1.484375 -1.125q-0.734375 -1.125 -0.734375 -2.234375q0 -0.765625 0.359375 -2.75q0.359375 -2.0 0.890625 -3.921875q0.296875 -0.859375 0.296875 -1.25q0 -0.234375 -0.203125 -0.234375q-0.1875 0 -1.15625 0.578125q-1.53125 0.8125 -2.109375 1.484375q-0.234375 0.1875 -0.765625 0.671875q-0.53125 0.484375 -0.953125 0.765625q-0.921875 0.71875 -2.4375 2.09375q-1.5 1.359375 -2.46875 2.328125q-0.28125 0.53125 -0.8125 0.53125q-0.140625 0 -0.421875 -0.109375q-0.578125 -0.140625 -1.015625 -0.640625q-0.4375 -0.5 -0.4375 -1.078125q0 -0.71875 0.84375 -3.015625q0.84375 -2.3125 2.09375 -5.046875q0.1875 -0.34375 0.328125 -0.984375q0.140625 -0.65625 0.140625 -1.234375q0 -0.328125 0.140625 -0.75q0.15625 -0.4375 0.34375 -0.640625q0.140625 -0.234375 0.4375 -0.234375q0.625 0 1.046875 0.71875q0.78125 0.71875 0.78125 1.828125q0 0.90625 -0.53125 2.34375q-0.34375 0.671875 -0.515625 1.09375q-0.15625 0.40625 -0.203125 0.546875q0.140625 0 1.25 -0.671875l1.1875 -0.71875l1.453125 -1.109375q1.09375 -0.859375 1.234375 -0.859375q0.203125 0 0.484375 -0.140625q0.296875 -0.15625 0.484375 -0.34375q0.140625 -0.140625 0.25 -0.1875q0.125 -0.046875 0.171875 -0.046875q0.0625 0 0.25 -0.046875q0.1875 -0.0625 0.328125 -0.203125q0.203125 -0.1875 0.671875 -0.1875q0.671875 0 1.34375 0.4375q0.671875 0.421875 0.671875 0.953125q0 0.140625 0.09375 0.265625q0.109375 0.125 0.15625 0.171875q0.1875 0 0.328125 0.5q0.140625 0.5 0.140625 1.21875q0 1.0625 -0.234375 1.78125q0 0.53125 -0.1875 1.34375q-0.1875 0.8125 -0.25 1.0625l-0.28125 1.234375q-0.625 1.921875 -0.625 3.171875q0 0.96875 0.390625 1.484375q0.09375 0.203125 0.09375 0.390625q0 0.28125 -0.21875 0.53125q-0.21875 0.234375 -0.640625 0.234375zm13.631287 -0.671875q-0.578125 0.234375 -1.203125 0.234375q-1.015625 0 -2.453125 -0.515625q-0.234375 0 -0.765625 -0.4375q-0.53125 -0.4375 -0.765625 -0.953125q-0.671875 -0.96875 -0.671875 -2.59375q0 -2.453125 1.390625 -5.859375q0.53125 -1.109375 1.75 -2.90625q1.21875 -1.796875 1.65625 -2.03125q0.140625 -0.0625 0.671875 -0.265625q0.53125 -0.21875 1.203125 -0.5625q0.671875 -0.328125 1.578125 -0.328125q0.921875 0 2.046875 0.65625q1.125 0.640625 1.796875 1.5q0.671875 0.859375 0.484375 1.484375q-0.046875 0.140625 -0.5625 0.625q-0.5 0.484375 -0.78125 0.765625q-0.25 0.25 -0.578125 0.25q-0.4375 0 -0.78125 -0.359375q-0.328125 -0.359375 -0.375 -0.984375q-0.09375 -0.296875 -0.609375 -0.625q-0.5 -0.34375 -0.6875 -0.4375q-0.375 0 -1.078125 0.671875q-0.703125 0.671875 -1.375 1.6875q-1.09375 1.140625 -1.875 2.828125q-0.765625 1.671875 -1.09375 2.875q-0.09375 0.1875 -0.09375 0.671875q0 0.53125 0.109375 1.0625q0.125 0.53125 0.265625 0.671875q0.109375 0.046875 0.484375 0.046875q1.109375 0 3.140625 -0.359375q2.046875 -0.359375 3.15625 -0.796875q1.09375 -0.71875 2.109375 -0.71875q0.328125 0 0.46875 0.046875q0.625 0.296875 0.625 0.671875q0 0.671875 -1.390625 1.4375q-0.8125 0.4375 -1.390625 0.875q-0.578125 0.421875 -0.578125 0.671875q-0.09375 0 -0.390625 0.125q-0.28125 0.109375 -0.375 0.0625q-0.53125 0.046875 -1.640625 0.34375q-1.09375 0.28125 -1.421875 0.46875zm19.435272 -0.4375q-1.203125 1.0625 -2.875 1.0625q-1.203125 0 -2.28125 -0.578125q-1.078125 -0.578125 -1.8125 -1.578125q-0.625 -0.765625 -0.90625 -1.71875q-0.28125 -0.96875 -0.28125 -2.359375q0 -0.484375 0.09375 -1.921875q0.140625 -1.78125 1.171875 -3.703125q1.03125 -1.921875 2.5625 -3.421875q1.546875 -1.515625 3.03125 -2.09375q0.765625 -0.484375 1.390625 -0.484375q0.34375 0 0.671875 0.046875q0.34375 0.046875 0.71875 0.09375q1.0625 0.15625 1.609375 0.421875q0.546875 0.265625 0.9375 0.78125q1.203125 1.203125 1.203125 2.78125q-0.203125 1.15625 -1.5 2.65625q-1.28125 1.484375 -3.109375 2.390625q-0.859375 0.28125 -1.96875 0.28125q-1.484375 0 -2.40625 -0.609375q-0.421875 -0.15625 -0.671875 -0.15625q-0.421875 0 -0.640625 0.578125q-0.21875 0.578125 -0.40625 2.109375q-0.046875 0.34375 -0.046875 0.96875q0 2.4375 1.625 2.6875q1.109375 0.234375 1.578125 0.234375q0.578125 0 1.296875 -0.375l0.921875 -0.53125q0.28125 -0.140625 0.515625 -0.375q0.25 -0.25 0.4375 -0.4375q0.09375 -0.109375 0.28125 -0.3125q0.203125 -0.21875 0.359375 -0.28125q0.171875 -0.078125 0.328125 -0.078125q0.1875 0 0.421875 0.21875q0.25 0.203125 0.390625 0.296875q0.421875 0 0.1875 0.609375q-0.234375 0.59375 -1.03125 1.390625q-0.796875 0.796875 -1.796875 1.40625zm-0.046875 -10.171875q0.8125 -0.328125 1.65625 -1.1875q0.84375 -0.875 0.84375 -1.453125q0 -0.578125 -0.4375 -0.953125q-0.4375 -0.390625 -1.203125 -0.390625q-0.578125 0 -0.859375 0.09375q-0.671875 0.203125 -1.59375 1.046875q-0.90625 0.828125 -1.578125 1.703125q-0.671875 0.859375 -0.53125 1.0q0.25 0.4375 1.875 0.4375q1.109375 0 1.828125 -0.296875z" fill-rule="nonzero"/><path fill="#000000" fill-opacity="0.0" d="m-0.010498688 20.569553l768.0 0l0 53.03937l-768.0 0z" fill-rule="evenodd"/><path fill="#000000" d="m27.655273 54.68986l5.84375 -0.59375q0.25 1.96875 1.46875 3.125q1.234375 1.15625 2.828125 1.15625q1.84375 0 3.109375 -1.484375q1.265625 -1.484375 1.265625 -4.484375q0 -2.8125 -1.265625 -4.21875q-1.25 -1.40625 -3.265625 -1.40625q-2.515625 0 -4.515625 2.234375l-4.75 -0.6875l3.0 -15.90625l15.46875 0l0 5.484375l-11.03125 0l-0.921875 5.1875q1.953125 -0.984375 4.0 -0.984375q3.890625 0 6.59375 2.84375q2.71875 2.828125 2.71875 7.34375q0 3.765625 -2.1875 6.734375q-2.984375 4.03125 -8.28125 4.03125q-4.21875 0 -6.890625 -2.265625q-2.65625 -2.265625 -3.1875 -6.109375zm56.324646 -3.359375l5.984375 1.890625q-1.375 5.0 -4.578125 7.421875q-3.203125 2.421875 -8.109375 2.421875q-6.078125 0 -10.0 -4.15625q-3.921875 -4.15625 -3.921875 -11.359375q0 -7.625 3.9375 -11.84375q3.9375 -4.21875 10.359375 -4.21875q5.59375 0 9.09375 3.3125q2.09375 1.96875 3.125 5.625l-6.09375 1.46875q-0.546875 -2.375 -2.265625 -3.75q-1.71875 -1.375 -4.171875 -1.375q-3.40625 0 -5.515625 2.4375q-2.109375 2.4375 -2.109375 7.890625q0 5.78125 2.078125 8.25q2.078125 2.453125 5.421875 2.453125q2.453125 0 4.21875 -1.5625q1.78125 -1.5625 2.546875 -4.90625zm9.867477 -0.15625q0 -2.90625 1.4375 -5.640625q1.4375 -2.734375 4.078125 -4.171875q2.640625 -1.4375 5.875 -1.4375q5.03125 0 8.234375 3.265625q3.203125 3.265625 3.203125 8.234375q0 5.015625 -3.234375 8.328125q-3.234375 3.296875 -8.15625 3.296875q-3.03125 0 -5.796875 -1.375q-2.765625 -1.375 -4.203125 -4.03125q-1.4375 -2.65625 -1.4375 -6.46875zm6.0 0.3125q0 3.296875 1.5625 5.046875q1.5625 1.75 3.859375 1.75q2.28125 0 3.828125 -1.75q1.5625 -1.75 1.5625 -5.078125q0 -3.25 -1.5625 -5.0q-1.546875 -1.75 -3.828125 -1.75q-2.296875 0 -3.859375 1.75q-1.5625 1.75 -1.5625 5.03125zm20.978012 -11.0625l5.390625 0l0 3.03125q2.890625 -3.53125 6.890625 -3.53125q2.125 0 3.6875 0.875q1.5625 0.875 2.5625 2.65625q1.46875 -1.78125 3.15625 -2.65625q1.6875 -0.875 3.59375 -0.875q2.4375 0 4.125 1.0q1.6875 0.984375 2.515625 2.90625q0.609375 1.40625 0.609375 4.578125l0 14.140625l-5.84375 0l0 -12.640625q0 -3.296875 -0.609375 -4.25q-0.8125 -1.25 -2.5 -1.25q-1.234375 0 -2.3125 0.75q-1.078125 0.75 -1.5625 2.203125q-0.484375 1.4375 -0.484375 4.5625l0 10.625l-5.84375 0l0 -12.125q0 -3.21875 -0.3125 -4.15625q-0.3125 -0.9375 -0.96875 -1.390625q-0.65625 -0.46875 -1.78125 -0.46875q-1.359375 0 -2.4375 0.734375q-1.078125 0.71875 -1.546875 2.09375q-0.46875 1.375 -0.46875 4.5625l0 10.75l-5.859375 0l0 -22.125zm38.193863 0l5.46875 0l0 3.25q1.0625 -1.65625 2.859375 -2.703125q1.8125 -1.046875 4.03125 -1.046875q3.84375 0 6.53125 3.03125q2.6875 3.015625 2.6875 8.40625q0 5.546875 -2.703125 8.625q-2.703125 3.0625 -6.5625 3.0625q-1.828125 0 -3.328125 -0.71875q-1.484375 -0.734375 -3.125 -2.515625l0 11.156254l-5.859375 0l0 -30.546879zm5.796875 10.6875q0 3.734375 1.46875 5.515625q1.484375 1.78125 3.609375 1.78125q2.046875 0 3.390625 -1.640625q1.359375 -1.640625 1.359375 -5.359375q0 -3.484375 -1.40625 -5.171875q-1.390625 -1.6875 -3.453125 -1.6875q-2.140625 0 -3.5625 1.65625q-1.40625 1.65625 -1.40625 4.90625zm19.071762 0.0625q0 -2.90625 1.4375 -5.640625q1.4375 -2.734375 4.078125 -4.171875q2.640625 -1.4375 5.875 -1.4375q5.03125 0 8.234375 3.265625q3.203125 3.265625 3.203125 8.234375q0 5.015625 -3.234375 8.328125q-3.234375 3.296875 -8.15625 3.296875q-3.03125 0 -5.796875 -1.375q-2.765625 -1.375 -4.203125 -4.03125q-1.4375 -2.65625 -1.4375 -6.46875zm6.0 0.3125q0 3.296875 1.5625 5.046875q1.5625 1.75 3.859375 1.75q2.28125 0 3.828125 -1.75q1.5625 -1.75 1.5625 -5.078125q0 -3.25 -1.5625 -5.0q-1.546875 -1.75 -3.828125 -1.75q-2.296875 0 -3.859375 1.75q-1.5625 1.75 -1.5625 5.03125zm41.540512 11.0625l-5.859375 0l0 -11.28125q0 -3.59375 -0.375 -4.640625q-0.375 -1.046875 -1.21875 -1.625q-0.84375 -0.59375 -2.03125 -0.59375q-1.515625 0 -2.734375 0.84375q-1.203125 0.828125 -1.65625 2.203125q-0.4375 1.375 -0.4375 5.078125l0 10.015625l-5.859375 0l0 -22.125l5.4375 0l0 3.25q2.890625 -3.75 7.296875 -3.75q1.9375 0 3.53125 0.703125q1.609375 0.703125 2.421875 1.78125q0.828125 1.078125 1.15625 2.453125q0.328125 1.375 0.328125 3.9375l0 13.75zm18.743637 -7.046875l5.828125 0.984375q-1.125 3.203125 -3.5625 4.890625q-2.421875 1.671875 -6.0625 1.671875q-5.765625 0 -8.53125 -3.765625q-2.1875 -3.03125 -2.1875 -7.625q0 -5.5 2.875 -8.609375q2.875 -3.125 7.265625 -3.125q4.9375 0 7.78125 3.265625q2.859375 3.265625 2.734375 9.984375l-14.65625 0q0.0625 2.609375 1.40625 4.0625q1.359375 1.4375 3.375 1.4375q1.375 0 2.3125 -0.75q0.9375 -0.75 1.421875 -2.421875zm0.328125 -5.90625q-0.0625 -2.546875 -1.3125 -3.859375q-1.25 -1.328125 -3.046875 -1.328125q-1.90625 0 -3.15625 1.390625q-1.25 1.40625 -1.234375 3.796875l8.75 0zm30.707764 12.953125l-5.859375 0l0 -11.28125q0 -3.59375 -0.375 -4.640625q-0.375 -1.046875 -1.21875 -1.625q-0.84375 -0.59375 -2.03125 -0.59375q-1.515625 0 -2.734375 0.84375q-1.203125 0.828125 -1.65625 2.203125q-0.4375 1.375 -0.4375 5.078125l0 10.015625l-5.859375 0l0 -22.125l5.4375 0l0 3.25q2.890625 -3.75 7.296875 -3.75q1.9375 0 3.53125 0.703125q1.609375 0.703125 2.421875 1.78125q0.828125 1.078125 1.15625 2.453125q0.328125 1.375 0.328125 3.9375l0 13.75zm16.071747 -22.125l0 4.671875l-4.0 0l0 8.90625q0 2.71875 0.109375 3.171875q0.125 0.4375 0.53125 0.734375q0.40625 0.28125 0.984375 0.28125q0.8125 0 2.359375 -0.5625l0.5 4.546875q-2.046875 0.875 -4.625 0.875q-1.578125 0 -2.859375 -0.53125q-1.265625 -0.53125 -1.859375 -1.375q-0.59375 -0.84375 -0.828125 -2.28125q-0.1875 -1.015625 -0.1875 -4.125l0 -9.640625l-2.6875 0l0 -4.671875l2.6875 0l0 -4.390625l5.875 -3.421875l0 7.8125l4.0 0zm2.0017395 15.8125l5.875 -0.890625q0.375 1.703125 1.515625 2.59375q1.15625 0.875 3.203125 0.875q2.28125 0 3.421875 -0.828125q0.765625 -0.578125 0.765625 -1.5625q0 -0.671875 -0.40625 -1.109375q-0.4375 -0.40625 -1.96875 -0.765625q-7.078125 -1.5625 -8.96875 -2.84375q-2.625 -1.796875 -2.625 -4.984375q0 -2.875 2.265625 -4.828125q2.28125 -1.96875 7.046875 -1.96875q4.53125 0 6.734375 1.484375q2.21875 1.484375 3.046875 4.375l-5.515625 1.015625q-0.359375 -1.28125 -1.34375 -1.96875q-0.984375 -0.6875 -2.828125 -0.6875q-2.296875 0 -3.296875 0.640625q-0.671875 0.453125 -0.671875 1.1875q0 0.625 0.578125 1.0625q0.796875 0.578125 5.46875 1.640625q4.671875 1.0625 6.53125 2.609375q1.828125 1.5625 1.828125 4.34375q0 3.046875 -2.546875 5.234375q-2.53125 2.1875 -7.515625 2.1875q-4.515625 0 -7.15625 -1.828125q-2.625 -1.84375 -3.4375 -4.984375zm36.27777 -5.0625q0 -2.90625 1.4375 -5.640625q1.4375 -2.734375 4.078125 -4.171875q2.640625 -1.4375 5.875 -1.4375q5.03125 0 8.234375 3.265625q3.203125 3.265625 3.203125 8.234375q0 5.015625 -3.234375 8.328125q-3.234375 3.296875 -8.15625 3.296875q-3.03125 0 -5.796875 -1.375q-2.765625 -1.375 -4.203125 -4.03125q-1.4375 -2.65625 -1.4375 -6.46875zm6.0 0.3125q0 3.296875 1.5625 5.046875q1.5625 1.75 3.859375 1.75q2.28125 0 3.828125 -1.75q1.5625 -1.75 1.5625 -5.078125q0 -3.25 -1.5625 -5.0q-1.546875 -1.75 -3.828125 -1.75q-2.296875 0 -3.859375 1.75q-1.5625 1.75 -1.5625 5.03125zm18.853027 -11.0625l3.25 0l0 -1.65625q0 -2.796875 0.59375 -4.171875q0.59375 -1.375 2.1875 -2.234375q1.59375 -0.875 4.03125 -0.875q2.5 0 4.890625 0.75l-0.796875 4.09375q-1.390625 -0.34375 -2.6875 -0.34375q-1.265625 0 -1.8125 0.59375q-0.546875 0.59375 -0.546875 2.28125l0 1.5625l4.359375 0l0 4.609375l-4.359375 0l0 17.515625l-5.859375 0l0 -17.515625l-3.25 0l0 -4.609375zm38.759277 0l0 4.671875l-4.0 0l0 8.90625q0 2.71875 0.109375 3.171875q0.125 0.4375 0.53125 0.734375q0.40625 0.28125 0.984375 0.28125q0.8125 0 2.359375 -0.5625l0.5 4.546875q-2.046875 0.875 -4.625 0.875q-1.578125 0 -2.859375 -0.53125q-1.265625 -0.53125 -1.859375 -1.375q-0.59375 -0.84375 -0.828125 -2.28125q-0.1875 -1.015625 -0.1875 -4.125l0 -9.640625l-2.6875 0l0 -4.671875l2.6875 0l0 -4.390625l5.875 -3.421875l0 7.8125l4.0 0zm9.8923645 -8.40625l0 11.21875q2.828125 -3.3125 6.765625 -3.3125q2.03125 0 3.65625 0.75q1.625 0.75 2.4375 1.921875q0.828125 1.171875 1.125 2.59375q0.3125 1.40625 0.3125 4.390625l0 12.96875l-5.859375 0l0 -11.6875q0 -3.46875 -0.34375 -4.40625q-0.328125 -0.9375 -1.171875 -1.484375q-0.84375 -0.5625 -2.109375 -0.5625q-1.453125 0 -2.609375 0.71875q-1.140625 0.703125 -1.671875 2.125q-0.53125 1.421875 -0.53125 4.21875l0 11.078125l-5.84375 0l0 -30.53125l5.84375 0zm33.040497 23.484375l5.828125 0.984375q-1.125 3.203125 -3.5625 4.890625q-2.421875 1.671875 -6.0625 1.671875q-5.765625 0 -8.53125 -3.765625q-2.1875 -3.03125 -2.1875 -7.625q0 -5.5 2.875 -8.609375q2.875 -3.125 7.265625 -3.125q4.9375 0 7.78125 3.265625q2.859375 3.265625 2.734375 9.984375l-14.65625 0q0.0625 2.609375 1.40625 4.0625q1.359375 1.4375 3.375 1.4375q1.375 0 2.3125 -0.75q0.9375 -0.75 1.421875 -2.421875zm0.328125 -5.90625q-0.0625 -2.546875 -1.3125 -3.859375q-1.25 -1.328125 -3.046875 -1.328125q-1.90625 0 -3.15625 1.390625q-1.25 1.40625 -1.234375 3.796875l8.75 0zm48.428833 12.953125l-6.703125 0l-2.671875 -6.9375l-12.203125 0l-2.515625 6.9375l-6.546875 0l11.890625 -30.53125l6.515625 0l12.234375 30.53125zm-11.359375 -12.078125l-4.203125 -11.328125l-4.125 11.328125l8.328125 0zm29.148743 12.078125l0 -3.3125q-1.21875 1.765625 -3.1875 2.796875q-1.96875 1.015625 -4.140625 1.015625q-2.234375 0 -4.015625 -0.96875q-1.765625 -0.984375 -2.5625 -2.75q-0.78125 -1.78125 -0.78125 -4.90625l0 -14.0l5.859375 0l0 10.171875q0 4.65625 0.3125 5.71875q0.328125 1.046875 1.171875 1.671875q0.859375 0.609375 2.171875 0.609375q1.5 0 2.6875 -0.828125q1.1875 -0.828125 1.625 -2.046875q0.4375 -1.21875 0.4375 -5.953125l0 -9.34375l5.859375 0l0 22.125l-5.4375 0zm21.634277 -22.125l0 4.671875l-4.0 0l0 8.90625q0 2.71875 0.109375 3.171875q0.125 0.4375 0.53125 0.734375q0.40625 0.28125 0.984375 0.28125q0.8125 0 2.359375 -0.5625l0.5 4.546875q-2.046875 0.875 -4.625 0.875q-1.578125 0 -2.859375 -0.53125q-1.265625 -0.53125 -1.859375 -1.375q-0.59375 -0.84375 -0.828125 -2.28125q-0.1875 -1.015625 -0.1875 -4.125l0 -9.640625l-2.6875 0l0 -4.671875l2.6875 0l0 -4.390625l5.875 -3.421875l0 7.8125l4.0 0zm9.892395 -8.40625l0 11.21875q2.828125 -3.3125 6.765625 -3.3125q2.03125 0 3.65625 0.75q1.625 0.75 2.4375 1.921875q0.828125 1.171875 1.125 2.59375q0.3125 1.40625 0.3125 4.390625l0 12.96875l-5.859375 0l0 -11.6875q0 -3.46875 -0.34375 -4.40625q-0.328125 -0.9375 -1.171875 -1.484375q-0.84375 -0.5625 -2.109375 -0.5625q-1.453125 0 -2.609375 0.71875q-1.140625 0.703125 -1.671875 2.125q-0.53125 1.421875 -0.53125 4.21875l0 11.078125l-5.84375 0l0 -30.53125l5.84375 0zm18.868591 19.15625q0 -2.90625 1.4375 -5.640625q1.4375 -2.734375 4.078125 -4.171875q2.640625 -1.4375 5.875 -1.4375q5.03125 0 8.234375 3.265625q3.203125 3.265625 3.203125 8.234375q0 5.015625 -3.234375 8.328125q-3.234375 3.296875 -8.15625 3.296875q-3.03125 0 -5.796875 -1.375q-2.765625 -1.375 -4.203125 -4.03125q-1.4375 -2.65625 -1.4375 -6.46875zm6.0 0.3125q0 3.296875 1.5625 5.046875q1.5625 1.75 3.859375 1.75q2.28125 0 3.828125 -1.75q1.5625 -1.75 1.5625 -5.078125q0 -3.25 -1.5625 -5.0q-1.546875 -1.75 -3.828125 -1.75q-2.296875 0 -3.859375 1.75q-1.5625 1.75 -1.5625 5.03125zm27.024902 11.0625l-5.859375 0l0 -22.125l5.4375 0l0 3.15625q1.390625 -2.234375 2.5 -2.9375q1.125 -0.71875 2.53125 -0.71875q2.0 0 3.859375 1.109375l-1.8125 5.109375q-1.484375 -0.96875 -2.75 -0.96875q-1.234375 0 -2.09375 0.6875q-0.84375 0.671875 -1.328125 2.453125q-0.484375 1.765625 -0.484375 7.40625l0 6.828125zm12.433411 -30.859375l5.84375 0l0 4.1875q0 2.546875 -0.4375 4.015625q-0.4375 1.46875 -1.65625 2.640625q-1.21875 1.15625 -3.09375 1.828125l-1.140625 -2.421875q1.765625 -0.578125 2.515625 -1.59375q0.75 -1.03125 0.796875 -2.796875l-2.828125 0l0 -5.859375zm8.346069 24.546875l5.875 -0.890625q0.375 1.703125 1.515625 2.59375q1.15625 0.875 3.203125 0.875q2.28125 0 3.421875 -0.828125q0.765625 -0.578125 0.765625 -1.5625q0 -0.671875 -0.40625 -1.109375q-0.4375 -0.40625 -1.96875 -0.765625q-7.078125 -1.5625 -8.96875 -2.84375q-2.625 -1.796875 -2.625 -4.984375q0 -2.875 2.265625 -4.828125q2.28125 -1.96875 7.046875 -1.96875q4.53125 0 6.734375 1.484375q2.21875 1.484375 3.046875 4.375l-5.515625 1.015625q-0.359375 -1.28125 -1.34375 -1.96875q-0.984375 -0.6875 -2.828125 -0.6875q-2.296875 0 -3.296875 0.640625q-0.671875 0.453125 -0.671875 1.1875q0 0.625 0.578125 1.0625q0.796875 0.578125 5.46875 1.640625q4.671875 1.0625 6.53125 2.609375q1.828125 1.5625 1.828125 4.34375q0 3.046875 -2.546875 5.234375q-2.53125 2.1875 -7.515625 2.1875q-4.515625 0 -7.15625 -1.828125q-2.625 -1.84375 -3.4375 -4.984375zm37.74652 6.3125l0 -30.53125l6.0 0l12.484375 20.390625l0 -20.390625l5.734375 0l0 30.53125l-6.1875 0l-12.3125 -19.90625l0 19.90625l-5.71875 0zm29.336243 -11.375q0 -2.90625 1.4375 -5.640625q1.4375 -2.734375 4.078125 -4.171875q2.640625 -1.4375 5.875 -1.4375q5.03125 0 8.234375 3.265625q3.203125 3.265625 3.203125 8.234375q0 5.015625 -3.234375 8.328125q-3.234375 3.296875 -8.15625 3.296875q-3.03125 0 -5.796875 -1.375q-2.765625 -1.375 -4.203125 -4.03125q-1.4375 -2.65625 -1.4375 -6.46875zm6.0 0.3125q0 3.296875 1.5625 5.046875q1.5625 1.75 3.859375 1.75q2.28125 0 3.828125 -1.75q1.5625 -1.75 1.5625 -5.078125q0 -3.25 -1.5625 -5.0q-1.546875 -1.75 -3.828125 -1.75q-2.296875 0 -3.859375 1.75q-1.5625 1.75 -1.5625 5.03125zm31.556152 -11.0625l0 4.671875l-4.0 0l0 8.90625q0 2.71875 0.109375 3.171875q0.125 0.4375 0.53125 0.734375q0.40625 0.28125 0.984375 0.28125q0.8125 0 2.359375 -0.5625l0.5 4.546875q-2.046875 0.875 -4.625 0.875q-1.578125 0 -2.859375 -0.53125q-1.265625 -0.53125 -1.859375 -1.375q-0.59375 -0.84375 -0.828125 -2.28125q-0.1875 -1.015625 -0.1875 -4.125l0 -9.640625l-2.6875 0l0 -4.671875l2.6875 0l0 -4.390625l5.875 -3.421875l0 7.8125l4.0 0zm16.876709 15.078125l5.828125 0.984375q-1.125 3.203125 -3.5625 4.890625q-2.421875 1.671875 -6.0625 1.671875q-5.765625 0 -8.53125 -3.765625q-2.1875 -3.03125 -2.1875 -7.625q0 -5.5 2.875 -8.609375q2.875 -3.125 7.265625 -3.125q4.9375 0 7.78125 3.265625q2.859375 3.265625 2.734375 9.984375l-14.65625 0q0.0625 2.609375 1.40625 4.0625q1.359375 1.4375 3.375 1.4375q1.375 0 2.3125 -0.75q0.9375 -0.75 1.421875 -2.421875zm0.328125 -5.90625q-0.0625 -2.546875 -1.3125 -3.859375q-1.25 -1.328125 -3.046875 -1.328125q-1.90625 0 -3.15625 1.390625q-1.25 1.40625 -1.234375 3.796875l8.75 0z" fill-rule="nonzero"/><path fill="#000000" fill-opacity="0.0" d="m265.6063 178.4567c0 82.07776 39.84253 123.12402 79.68503 164.15552c39.84253 41.031494 79.68506 82.04822 79.68506 164.09644" fill-rule="evenodd"/><path stroke="#000000" stroke-width="3.0" stroke-linejoin="round" stroke-linecap="butt" d="m265.6063 178.4567c0 82.07776 39.84253 123.12402 79.68506 164.15552c19.921234 20.515747 39.8425 41.0278 54.783447 66.66693c7.4704895 12.819611 13.695862 26.92096 18.05365 42.945374c2.178894 8.012268 3.8908691 16.505249 5.058136 25.559235c0.5836487 4.5269775 1.0310669 9.194214 1.3326111 14.011688c0.07537842 1.2043457 0.1416626 2.4181519 0.19863892 3.641449l0.04232788 0.99276733" fill-rule="evenodd"/><path fill="#000000" stroke="#000000" stroke-width="3.0" stroke-linecap="butt" d="m424.76016 496.4297l-3.4439392 -3.302063l3.5679321 9.196289l3.17807 -9.338196z" fill-rule="evenodd"/><path fill="#ffd966" d="m241.86876 316.59842l366.2362 0l0 73.700806l-366.2362 0z" fill-rule="evenodd"/><path stroke="#000000" stroke-width="3.0" stroke-linejoin="round" stroke-linecap="butt" d="m241.86876 316.59842l366.2362 0l0 73.700806l-366.2362 0z" fill-rule="evenodd"/><path fill="#000000" d="m321.93286 373.07568q-0.625 0.046875 -1.140625 -0.265625q-0.5 -0.3125 -0.6875 -0.796875q-0.28125 -0.28125 -0.625 -0.859375q-0.328125 -0.578125 -0.421875 -1.109375q-0.203125 -2.296875 -0.203125 -3.359375q0 -1.34375 0.140625 -3.640625q0.15625 -2.21875 0.5625 -4.15625q0.40625 -1.9375 1.125 -4.78125q0.28125 -0.90625 0.421875 -1.546875q0.15625 -0.65625 0.015625 -0.65625q-0.25 0.046875 -0.875 1.234375q-0.625 1.171875 -1.25 2.515625q-0.28125 0.515625 -0.546875 1.125q-0.265625 0.59375 -0.546875 1.125q-1.34375 2.984375 -4.953125 9.03125q-0.421875 0.515625 -1.1875 1.671875q-1.5 2.265625 -2.453125 3.125q-1.203125 1.15625 -2.40625 1.15625q-0.859375 0 -1.4375 -0.578125q-0.625 -0.765625 -0.625 -1.5q0 -0.1875 0.09375 -0.671875q-0.140625 -1.1875 0.265625 -4.90625q0.40625 -3.734375 0.84375 -6.21875q0.34375 -2.3125 1.484375 -7.59375l1.0625 -5.171875q0.28125 -0.734375 0.90625 -2.890625l0.4375 -1.578125q0.046875 -0.859375 0.375 -1.265625q0.34375 -0.421875 0.828125 -0.421875q0.671875 0 1.140625 0.625q0.78125 0.875 0.78125 2.0625q0 0.96875 -0.4375 1.96875q-2.15625 5.28125 -3.453125 13.921875q-0.484375 2.828125 -0.890625 6.078125q-0.40625 3.234375 -0.21875 3.28125q0.390625 0.09375 1.0625 -0.59375q0.671875 -0.703125 1.1875 -1.84375q3.265625 -5.4375 7.640625 -13.921875q0.09375 -0.15625 2.109375 -3.9375l1.15625 -2.15625q0.140625 -0.296875 0.359375 -0.65625q0.21875 -0.359375 0.453125 -0.75q1.0625 -1.953125 1.65625 -2.90625q0.59375 -0.96875 0.9375 -1.125q0.8125 0.046875 1.34375 0.421875q0.53125 0.359375 0.90625 1.21875q0.046875 0.234375 -0.078125 0.796875q-0.109375 0.546875 -0.296875 1.03125q-0.09375 0.28125 -0.46875 1.4375q-0.359375 1.140625 -0.59375 2.296875q-0.90625 2.40625 -1.34375 4.65625q-0.328125 1.734375 -0.71875 3.359375q-0.8125 3.703125 -1.21875 6.109375q-0.40625 2.390625 -0.46875 4.3125q-0.046875 2.453125 0.296875 3.3125q0.140625 0.484375 0.71875 0.484375q0.4375 0 0.71875 -0.34375q1.390625 -1.828125 2.296875 -3.21875q0.921875 -1.390625 1.96875 -3.3125q2.9375 -5.46875 6.96875 -15.015625q1.53125 -4.421875 2.078125 -5.765625q0.5625 -1.34375 1.28125 -1.734375q0.28125 -0.1875 0.578125 -0.1875q0.53125 0 0.953125 0.390625q0.203125 0.1875 0.359375 0.625q0.171875 0.421875 0.125 0.953125q-0.484375 1.6875 -2.234375 6.265625q-1.75 4.578125 -2.703125 6.65625q-0.203125 0.328125 -0.78125 1.28125q-0.09375 0.15625 -0.40625 0.703125q-0.3125 0.546875 -0.3125 0.84375q0 0.46875 -2.515625 5.015625q-2.515625 4.53125 -3.71875 6.0625q-1.578125 2.015625 -3.1875 3.140625q-1.609375 1.140625 -2.234375 1.140625zm16.37259 -4.234375q-0.390625 -0.28125 -0.53125 -0.515625q-0.140625 -0.25 -0.140625 -0.71875q0 -0.4375 0.046875 -0.71875q0.140625 -1.640625 0.71875 -3.796875l0.234375 -0.96875q0.140625 -1.1875 1.671875 -5.03125q1.546875 -3.84375 2.5 -5.234375q0.390625 -0.234375 0.828125 -0.234375q0.609375 0 1.046875 0.421875q0.296875 0.203125 0.296875 0.71875q0 0.484375 -0.375 1.421875q-0.359375 0.9375 -1.21875 2.765625q-0.1875 0.375 -0.640625 1.4375q-0.453125 1.046875 -0.453125 1.25q0 0.09375 0.046875 0.09375q0.09375 0 0.1875 -0.0625q0.09375 -0.078125 0.1875 -0.125q0.53125 -0.921875 2.5625 -2.5q2.046875 -1.59375 2.8125 -1.96875q0.34375 -0.1875 0.859375 -0.375q0.53125 -0.203125 0.734375 -0.296875q0.765625 -0.390625 1.8125 -0.390625q0.671875 0 1.171875 0.21875q0.515625 0.21875 0.703125 0.65625q0.046875 0.328125 0.265625 0.53125q0.21875 0.1875 0.3125 0.234375q0.140625 0 0.1875 0.125q0.046875 0.109375 0.046875 0.15625q0 0.34375 -0.390625 0.421875q-0.375 0.0625 -1.375 0.109375q-0.53125 0.046875 -1.109375 0.25q-0.578125 0.1875 -1.15625 0.46875q-2.6875 1.53125 -4.015625 2.40625q-1.3125 0.859375 -2.65625 2.34375q-0.515625 0.578125 -1.390625 2.0625q-0.328125 0.34375 -0.6875 1.765625q-0.359375 1.40625 -0.359375 1.734375q-0.046875 0.15625 -0.203125 0.5625q-0.140625 0.40625 -0.421875 0.78125q-0.578125 0.78125 -0.96875 0.78125q-0.421875 0 -1.140625 -0.78125zm21.785645 -19.34375q-0.34375 -0.328125 -0.578125 -1.140625q-0.234375 -0.8125 0 -0.8125q0.390625 -0.0625 0.890625 -0.84375q0.5 -0.796875 0.453125 -1.328125q0 -0.1875 0.140625 -0.359375q0.15625 -0.171875 0.34375 -0.21875q0.375 -0.234375 0.671875 -0.234375q0.8125 0 1.484375 1.15625q0.296875 0.625 0.296875 1.09375q0 0.4375 -0.25 0.890625q-0.234375 0.453125 -0.859375 1.1875q-0.8125 1.09375 -1.53125 1.09375q-0.484375 0 -1.0625 -0.484375zm-4.65625 19.5q-0.671875 -0.671875 -0.671875 -1.921875q0 -0.671875 0.234375 -1.15625q0 -0.234375 0.09375 -0.5625q0.109375 -0.34375 0.109375 -0.4375q-0.046875 -0.296875 0.375 -1.59375q0.875 -1.921875 2.3125 -6.765625q0 -0.234375 0.1875 -0.40625q0.1875 -0.171875 0.578125 -0.21875q0.375 -0.09375 0.53125 -0.09375q0.28125 0 0.5 0.21875q0.21875 0.21875 0.59375 0.78125q0.296875 0.296875 0.296875 0.875q0 0.90625 -0.625 2.203125q-0.625 1.390625 -0.8125 2.40625q-0.578125 1.296875 -0.921875 2.390625q-0.09375 0.296875 -0.296875 1.15625q-0.1875 0.859375 -0.515625 1.390625q-0.28125 1.34375 -0.53125 1.875q-0.234375 0.53125 -0.53125 0.53125q-0.328125 0 -0.90625 -0.671875zm14.444763 1.4375q-0.671875 -0.1875 -1.109375 -0.421875q-0.421875 -0.25 -1.140625 -0.921875q-0.859375 -1.15625 -1.125 -2.140625q-0.265625 -0.984375 -0.265625 -3.140625q0 -1.15625 1.296875 -6.34375q-0.09375 0.34375 0.328125 -1.390625q0.140625 -0.515625 -0.390625 -0.65625q-0.515625 -0.15625 -1.484375 -0.15625q-0.8125 0 -0.953125 -0.09375q-0.140625 -0.046875 -0.171875 -0.140625q-0.015625 -0.09375 -0.015625 -0.140625q0 -0.25 -0.203125 -0.578125q-0.046875 -0.046875 -0.046875 -0.15625q0 -0.234375 0.265625 -0.515625q0.265625 -0.296875 0.65625 -0.34375q0.234375 -0.046875 1.09375 -0.140625q0.875 -0.09375 1.640625 -0.375q0.765625 -0.296875 1.203125 -0.828125q0.609375 -1.578125 1.5625 -3.5625q0.96875 -2.0 1.3125 -2.390625q0.765625 -0.375 1.046875 -0.375q0.296875 0 0.484375 0.1875q0.1875 0.1875 0.53125 0.671875q0.046875 0.09375 0.234375 0.34375q0.203125 0.234375 0.203125 0.46875q0 0.390625 -0.359375 1.15625q-0.359375 0.765625 -1.421875 2.6875l-0.625 1.203125q0.140625 0.046875 0.671875 0.046875q0.53125 0 0.859375 -0.046875q1.0625 -0.203125 1.96875 -0.203125q0.484375 0 0.671875 0.046875q1.109375 0 1.609375 0.421875q0.5 0.40625 0.609375 1.359375q0.09375 0.53125 -0.203125 0.625q-0.28125 0.09375 -1.625 0.09375q-5.5625 0.25 -5.625 0.4375q-0.1875 0.140625 -0.71875 1.6875q-0.515625 1.53125 -0.90625 2.921875q-0.625 2.875 -0.625 5.078125q0 2.015625 0.578125 2.6875q0.234375 0.25 0.90625 0.25q0.671875 0 1.46875 -0.265625q0.796875 -0.265625 1.3125 -0.703125q0.875 -0.71875 1.453125 -0.71875q0.28125 0 0.453125 0.171875q0.171875 0.171875 0.171875 0.40625q0 0.53125 -0.578125 1.34375q-0.71875 1.109375 -1.921875 1.828125q-1.203125 0.71875 -2.3125 0.71875q-0.515625 0 -0.765625 -0.09375zm17.809906 -20.546875q-0.140625 0.140625 -0.28125 0.140625q-0.203125 0 -0.625 -0.28125q-0.484375 -0.046875 -1.28125 -0.84375q-0.78125 -0.796875 -0.78125 -1.03125q-0.109375 -0.953125 0.28125 -2.0625q0.390625 -1.109375 1.390625 -1.15625q0.140625 0 0.375 0.078125q0.25 0.0625 0.828125 0.3125q0.09375 0.1875 0.40625 0.8125q0.3125 0.625 0.484375 1.203125q0.171875 0.578125 0.171875 1.046875q0 1.15625 -0.96875 1.78125zm-5.421875 19.15625q-0.71875 0 -1.28125 -0.90625q-0.546875 -0.921875 -0.640625 -1.828125q0.1875 -1.828125 0.28125 -2.59375q0.390625 -1.78125 1.234375 -4.875q0.84375 -3.09375 1.03125 -3.484375q0.140625 -0.234375 0.4375 -0.234375q0.28125 0 0.609375 0.1875q0.34375 0.1875 0.578125 0.4375q0.390625 0.53125 0.390625 1.203125q0 1.0 -0.96875 4.21875q-0.671875 2.40625 -0.859375 3.421875q-0.1875 1.0 -0.140625 2.140625q-0.046875 0.34375 -0.171875 1.140625q-0.109375 0.78125 -0.21875 0.984375q-0.09375 0.1875 -0.28125 0.1875zm8.788513 -0.625q-0.15625 0 -0.515625 -0.234375q-0.359375 -0.25 -0.59375 -0.484375q-0.34375 -0.34375 -0.421875 -0.71875q-0.0625 -0.390625 -0.0625 -1.78125q0 -1.484375 0.59375 -3.265625q0.609375 -1.78125 2.140625 -5.140625l1.59375 -3.359375q0.140625 -0.328125 0.671875 -0.953125l0.46875 0q0.34375 0 0.75 0.4375q0.40625 0.421875 0.609375 1.0q0 0.765625 -0.21875 1.4375q-0.21875 0.671875 -1.140625 1.875q-0.375 0.578125 -0.90625 1.828125q-0.53125 1.25 -0.71875 2.109375q-0.140625 0.234375 -0.359375 0.8125q-0.21875 0.578125 -0.5 1.203125l-0.25 1.0625l3.21875 -3.3125q2.109375 -2.125 3.421875 -3.078125q1.328125 -0.953125 2.203125 -0.953125q1.0 0 1.625 1.28125q0.4375 0.734375 0.578125 1.140625q0.140625 0.40625 0.140625 1.265625q0 0.296875 -0.09375 1.640625l0 2.96875q0.671875 -0.140625 1.21875 -0.375q0.5625 -0.25 0.84375 -0.34375q1.109375 -0.484375 2.453125 -0.578125q-0.09375 0.8125 -0.71875 1.78125q-0.625 0.953125 -1.546875 1.609375q-0.90625 0.640625 -1.765625 0.640625q-0.671875 0 -1.421875 -0.625q-0.75 -0.625 -1.078125 -1.390625q-0.1875 -0.53125 -0.21875 -1.296875q-0.015625 -0.765625 -0.015625 -2.15625l0 -1.78125q0 -0.46875 -0.296875 -0.46875q-0.1875 0 -0.90625 0.5625q-0.96875 0.875 -3.125 3.125q-2.0625 2.15625 -3.578125 3.34375q-1.5 1.171875 -2.078125 1.171875zm33.02191 -12.390625q0.28125 0.578125 0.28125 1.109375q0 0.71875 -0.578125 1.4375q-0.140625 0.234375 -0.53125 0.75q-0.375 0.5 -0.671875 1.03125q-0.28125 0.53125 -0.421875 1.203125q-0.1875 1.09375 -1.15625 4.703125l-0.53125 1.859375l-0.765625 2.984375q-2.15625 7.4375 -4.3125 8.59375q-0.625 0.234375 -1.203125 0.234375q-1.0625 0 -2.1875 -0.703125q-1.125 -0.6875 -1.9375 -1.890625q-0.484375 -0.671875 -0.9375 -2.140625q-0.453125 -1.453125 -0.171875 -1.640625q0.09375 -0.109375 0.34375 -0.109375q0.328125 0 0.703125 0.21875q0.390625 0.21875 0.484375 0.5q0.203125 0.53125 0.828125 1.390625q0.625 0.875 0.90625 0.921875q0.765625 0.390625 1.296875 0.390625q0.4375 0 0.8125 -0.296875q0.765625 -0.625 1.3125 -1.609375q0.5625 -0.984375 1.234375 -3.140625l0.390625 -1.390625q1.140625 -4.21875 1.671875 -5.46875q0.234375 -0.78125 0.484375 -1.203125l-0.859375 0.765625q-0.578125 0.53125 -1.203125 1.015625q-0.625 0.46875 -1.296875 0.765625q-0.34375 0.421875 -1.6875 0.421875q-0.953125 0 -1.921875 -0.28125q-1.0 -0.53125 -1.25 -0.8125q-0.234375 -0.296875 -0.671875 -1.34375q-0.1875 -0.390625 -0.1875 -1.203125q0 -2.0625 0.96875 -4.421875q0.90625 -1.875 2.875 -3.984375q1.96875 -2.109375 3.40625 -2.546875q0.578125 -0.28125 1.0625 -0.28125q0.515625 0 1.09375 0.1875q0.765625 0.09375 1.203125 0.34375q0.4375 0.234375 1.4375 1.09375q1.15625 1.15625 1.6875 2.546875zm-5.28125 4.75q0.8125 -1.09375 1.140625 -2.359375q0.34375 -1.28125 0.25 -2.53125q-0.046875 -0.671875 -0.203125 -0.9375q-0.140625 -0.265625 -0.515625 -0.265625q-0.90625 0 -2.109375 0.875q-1.203125 0.859375 -2.3125 2.25q-0.71875 0.953125 -1.203125 2.296875q-0.5625 1.640625 -0.5625 3.03125q0 1.046875 0.375 1.203125q1.484375 -0.046875 2.703125 -0.859375q1.234375 -0.828125 2.4375 -2.703125zm20.390442 18.15625q-0.28125 0.140625 -0.515625 0.140625q-0.671875 0 -1.15625 -0.703125q-0.484375 -0.6875 -0.484375 -1.65625q0 -0.421875 0.140625 -0.953125q0.0625 -0.1875 0.265625 -0.890625q0.21875 -0.703125 0.265625 -1.171875q0.09375 -0.53125 0.578125 -1.921875q0.484375 -1.390625 0.765625 -1.875q0.25 -0.4375 0.390625 -1.03125q0.140625 -0.59375 0.140625 -1.03125q0.34375 -1.0625 0.625 -1.4375q0.34375 -1.0625 0.71875 -1.640625q0.046875 -0.140625 0.109375 -0.6875q0.078125 -0.5625 0.328125 -0.65625q0.140625 -0.671875 0.234375 -0.90625q0.34375 -1.484375 1.25 -3.75q0.484375 -1.25 0.484375 -2.484375q0 -1.5 -0.71875 -1.734375q-0.53125 -0.1875 -0.53125 -0.765625q0 -0.34375 0.1875 -0.625q0.1875 -0.28125 0.53125 -0.4375q0.375 -0.140625 0.765625 -0.140625q0.53125 0 0.984375 0.15625q0.453125 0.140625 0.40625 0.234375q0 0.140625 0.046875 0.21875q0.046875 0.0625 0.1875 0.0625q0.15625 -0.1875 0.71875 0.796875q0.578125 0.984375 0.578125 1.359375q-0.09375 0.15625 -0.078125 0.203125q0.03125 0.046875 0.1875 0.046875q0.328125 -0.15625 1.265625 -0.65625q0.9375 -0.5 1.171875 -0.78125q0.09375 -0.0625 0.328125 -0.171875q0.25 -0.125 0.390625 -0.265625q0.53125 -0.1875 1.203125 -0.1875q0.765625 0 1.484375 0.234375q0.71875 0.234375 1.203125 0.671875q1.015625 1.296875 1.015625 2.453125q0 1.0 -0.671875 2.640625q-0.09375 0.28125 -0.609375 1.125q-0.5 0.84375 -0.6875 1.125q-1.015625 1.578125 -2.40625 2.734375q-1.390625 1.15625 -3.21875 2.15625q-0.515625 0.34375 -1.078125 0.53125q-0.546875 0.1875 -0.9375 0.1875q-0.1875 0 -0.375 -0.09375q-0.53125 -0.375 -0.96875 -1.625q-0.625 1.484375 -0.71875 2.015625q0 0.140625 -0.078125 0.453125q-0.0625 0.3125 -0.25 0.453125q0 0.046875 -0.078125 0.25q-0.078125 0.1875 -0.3125 0.515625q-0.71875 2.015625 -0.90625 2.5q-0.8125 2.3125 -0.96875 3.03125q-0.09375 1.1875 -0.53125 2.5q-0.421875 1.328125 -0.671875 1.484375zm5.71875 -13.6875q0.4375 -0.234375 2.34375 -1.703125q1.921875 -1.46875 2.40625 -2.046875q0.921875 -1.09375 1.25 -2.0625q0.484375 -1.1875 0.671875 -1.765625q0.140625 -0.296875 0.140625 -0.671875q0 -0.53125 -0.28125 -0.828125q-0.296875 -0.046875 -1.28125 0.3125q-0.984375 0.359375 -2.109375 1.0625q-1.125 0.703125 -1.890625 1.703125q-0.859375 1.15625 -1.375 2.5q-0.5 1.34375 -0.5 2.296875q0 1.203125 0.625 1.203125zm14.644043 4.171875q-0.1875 0.34375 -0.484375 0.34375q-0.28125 0 -0.59375 -0.1875q-0.3125 -0.203125 -0.359375 -0.25q-0.71875 0 -0.921875 -0.765625q-0.046875 -0.09375 -0.046875 -0.4375q0 -0.625 0.578125 -2.4375l0.34375 -1.546875q0.46875 -2.109375 0.859375 -3.546875q0.140625 -0.234375 0.578125 -1.625q0.28125 -1.0625 0.765625 -2.0625q0.578125 -2.171875 1.828125 -4.28125q0.09375 -0.140625 0.375 -0.375q0.296875 -0.25 0.4375 -0.25q0.28125 -0.28125 0.625 -0.28125q0.328125 0 0.859375 0.421875q0.484375 0.578125 0.484375 1.109375q0 0.90625 -1.203125 2.734375l-0.765625 1.875q-0.09375 0.234375 -0.484375 1.125q-0.375 0.890625 -0.484375 1.609375q0.625 -0.859375 2.265625 -2.5q0.953125 -0.953125 1.578125 -1.40625q0.625 -0.453125 1.828125 -1.234375q0.859375 -0.625 1.53125 -0.90625q0.671875 -0.28125 1.484375 -0.28125q0.4375 0 0.671875 0.046875q0.671875 -0.046875 1.0625 0.671875q0.390625 0.71875 0.484375 1.859375q-0.578125 -0.09375 -0.8125 -0.09375q-0.96875 0 -1.71875 0.390625q-0.734375 0.375 -1.21875 0.75q-0.484375 0.359375 -0.625 0.453125q-2.59375 1.671875 -4.03125 3.15625q-1.484375 1.640625 -2.09375 2.40625q-0.59375 0.765625 -0.875 1.53125q-0.15625 0.34375 -0.828125 2.0q-0.671875 1.65625 -1.09375 1.984375zm19.71753 0.828125q-0.5625 0.046875 -0.921875 -0.078125q-0.359375 -0.125 -1.03125 -0.546875q-2.078125 -1.6875 -2.03125 -3.3125q0.0625 -0.15625 0.0625 -0.4375q0 -0.28125 -0.0625 -0.453125q-0.046875 -0.171875 -0.046875 -0.21875q-0.1875 -0.140625 -0.21875 -0.203125q-0.015625 -0.078125 0.046875 -0.171875q0.078125 -0.109375 0.125 -0.203125q0.203125 -0.046875 0.203125 -0.1875q0 -0.140625 -0.109375 -0.34375q-0.140625 -0.375 0.171875 -1.734375q0.3125 -1.375 0.84375 -2.578125q0.390625 -0.90625 1.21875 -2.34375q0.84375 -1.453125 1.5625 -2.21875q1.015625 -1.15625 1.84375 -1.78125q0.84375 -0.625 1.953125 -1.0q1.0 -0.4375 1.390625 -0.4375q0.484375 0 1.203125 0.578125q1.140625 0.34375 1.734375 0.9375q0.609375 0.59375 0.953125 1.84375q0.28125 1.015625 0.28125 2.265625q0 2.6875 -1.671875 5.890625q-0.875 1.734375 -1.6875 2.671875q-0.8125 0.9375 -2.25 2.1875q-1.015625 0.8125 -1.765625 1.25q-0.734375 0.421875 -1.796875 0.625zm3.84375 -5.71875q1.015625 -1.484375 1.53125 -2.703125q0.53125 -1.234375 0.875 -3.0625q0.046875 -0.1875 0.046875 -0.765625q0 -0.953125 -0.203125 -1.8125q-0.1875 -0.875 -0.46875 -0.921875q-0.390625 -0.140625 -0.71875 -0.140625q-1.109375 0 -2.359375 1.296875q-1.140625 1.34375 -1.984375 3.25q-0.84375 1.890625 -1.65625 4.625q-0.25 0.953125 -0.25 1.53125q0 0.859375 0.328125 1.375q0.34375 0.5 0.96875 0.5q0.78125 0 1.78125 -0.796875q1.015625 -0.796875 2.109375 -2.375zm13.490906 5.46875q-0.671875 0.09375 -1.0 0.09375q-1.78125 0 -2.9375 -1.09375q-1.15625 -1.109375 -1.15625 -3.078125q-0.1875 -2.109375 0.9375 -5.21875q1.140625 -3.125 2.859375 -5.25q1.203125 -1.390625 2.0625 -2.25q0.859375 -0.859375 1.59375 -1.15625q1.0 -0.421875 2.25 -0.421875q0.859375 0.1875 1.703125 0.71875q0.84375 0.53125 0.84375 1.046875l0.234375 0.25q0.296875 0 0.53125 0.703125q0.234375 0.6875 0.234375 1.5q0 0.671875 -0.234375 1.15625q-0.1875 0.90625 -0.65625 1.578125q-0.453125 0.671875 -0.875 0.671875q-0.53125 0 -0.53125 0.296875q0 0.1875 -0.1875 0.1875q-0.25 0 -0.59375 -0.28125q-0.328125 -0.296875 -0.46875 -0.6875q0 -0.140625 0.1875 -0.8125q0.203125 -0.671875 0.390625 -1.484375q0.140625 -0.578125 0.140625 -1.015625q0 -0.953125 -0.71875 -0.953125q-0.390625 0 -0.765625 0.1875q-1.921875 1.0625 -3.421875 3.375q-1.484375 2.296875 -2.484375 6.328125q-0.234375 1.046875 -0.234375 1.671875q0 0.484375 0.0625 0.78125q0.078125 0.28125 0.171875 0.328125q0.234375 0.09375 1.0 0.09375q1.78125 0 2.5 -0.4375q1.546875 -0.8125 3.40625 -2.203125q0.203125 -0.140625 0.578125 -0.5q0.390625 -0.359375 0.71875 -0.5q0.34375 -0.53125 0.625 -0.65625q0.296875 -0.125 0.921875 -0.125q0.625 0.203125 1.0 0.515625q0.390625 0.3125 0 0.5q-0.140625 0 -0.1875 0.09375q-0.046875 0.09375 -0.046875 0.140625q0.09375 0.25 -0.78125 1.21875q-0.859375 0.953125 -1.921875 1.796875q-1.046875 0.828125 -1.421875 0.828125q-0.203125 0 -0.34375 0.046875q-0.140625 0.046875 -0.140625 0.25q0 0.1875 -1.46875 0.890625q-1.46875 0.6875 -2.375 0.875zm20.25879 -1.15625q-1.203125 1.0625 -2.875 1.0625q-1.203125 0 -2.28125 -0.578125q-1.078125 -0.578125 -1.8125 -1.578125q-0.625 -0.765625 -0.90625 -1.71875q-0.28125 -0.96875 -0.28125 -2.359375q0 -0.484375 0.09375 -1.921875q0.140625 -1.78125 1.171875 -3.703125q1.03125 -1.921875 2.5625 -3.421875q1.546875 -1.515625 3.03125 -2.09375q0.765625 -0.484375 1.390625 -0.484375q0.34375 0 0.671875 0.046875q0.34375 0.046875 0.71875 0.09375q1.0625 0.15625 1.609375 0.421875q0.546875 0.265625 0.9375 0.78125q1.203125 1.203125 1.203125 2.78125q-0.203125 1.15625 -1.5 2.65625q-1.28125 1.484375 -3.109375 2.390625q-0.859375 0.28125 -1.96875 0.28125q-1.484375 0 -2.40625 -0.609375q-0.421875 -0.15625 -0.671875 -0.15625q-0.421875 0 -0.640625 0.578125q-0.21875 0.578125 -0.40625 2.109375q-0.046875 0.34375 -0.046875 0.96875q0 2.4375 1.625 2.6875q1.109375 0.234375 1.578125 0.234375q0.578125 0 1.296875 -0.375l0.921875 -0.53125q0.28125 -0.140625 0.515625 -0.375q0.25 -0.25 0.4375 -0.4375q0.09375 -0.109375 0.28125 -0.3125q0.203125 -0.21875 0.359375 -0.28125q0.171875 -0.078125 0.328125 -0.078125q0.1875 0 0.421875 0.21875q0.25 0.203125 0.390625 0.296875q0.421875 0 0.1875 0.609375q-0.234375 0.59375 -1.03125 1.390625q-0.796875 0.796875 -1.796875 1.40625zm-0.046875 -10.171875q0.8125 -0.328125 1.65625 -1.1875q0.84375 -0.875 0.84375 -1.453125q0 -0.578125 -0.4375 -0.953125q-0.4375 -0.390625 -1.203125 -0.390625q-0.578125 0 -0.859375 0.09375q-0.671875 0.203125 -1.59375 1.046875q-0.90625 0.828125 -1.578125 1.703125q-0.671875 0.859375 -0.53125 1.0q0.25 0.4375 1.875 0.4375q1.109375 0 1.828125 -0.296875zm11.037537 11.46875q-1.625 0 -2.828125 -0.671875q-1.203125 -0.671875 -1.59375 -1.8125q-0.328125 -0.875 -0.328125 -0.96875q0 -0.28125 0.328125 -0.421875q0.34375 0 0.796875 0.28125q0.453125 0.28125 0.75 0.390625q0.71875 0.671875 1.96875 0.671875q0.953125 0 1.734375 -0.390625q0.796875 -0.390625 0.90625 -0.90625q0 -0.25 -0.484375 -1.6875q-1.203125 -1.71875 -1.859375 -3.515625q-0.640625 -1.8125 -0.640625 -3.0625q0 -0.90625 0.53125 -1.859375q0.53125 -0.96875 1.4375 -1.640625q1.203125 -1.25 2.90625 -2.25q1.703125 -1.015625 3.09375 -1.390625q0.578125 0 1.40625 0.140625q0.84375 0.140625 1.1875 0.328125q0.53125 0.203125 1.0 1.0625q0.484375 0.859375 0.484375 1.625q0 0.765625 -0.8125 2.109375q-0.09375 0.34375 -0.390625 0.921875q-0.28125 0.578125 -0.28125 0.71875q-0.1875 0.484375 -0.625 0.484375q-0.4375 0 -0.84375 -0.40625q-0.40625 -0.421875 -0.640625 -0.984375q-0.140625 -0.578125 -0.140625 -1.015625q0 -0.578125 0.375 -1.15625q0.53125 -0.515625 0.53125 -0.71875q0 -0.1875 -0.53125 -0.1875q-0.578125 0 -2.21875 0.921875q-1.625 0.90625 -2.578125 1.90625q-0.859375 0.8125 -1.0625 1.234375q-0.1875 0.40625 -0.1875 1.21875q0 0.71875 0.3125 1.703125q0.3125 0.984375 0.640625 1.3125q0.109375 0.203125 0.421875 0.828125q0.3125 0.625 0.734375 1.1875q0.96875 2.171875 0.96875 3.359375q0 1.40625 -1.09375 2.03125q-1.078125 0.609375 -3.375 0.609375zm16.946167 -0.28125q-2.40625 0 -3.5 -1.734375q-0.34375 -0.375 -0.34375 -0.953125q0 -0.28125 0.109375 -0.5q0.125 -0.21875 0.328125 -0.21875q0.234375 0 0.53125 0.328125q0.671875 0.390625 1.90625 0.390625q1.34375 0 2.640625 -0.484375q1.546875 -0.671875 0.875 -1.046875l0.046875 0q-1.875 -0.484375 -3.734375 -1.84375q-1.84375 -1.375 -2.03125 -2.484375q-0.140625 -0.578125 -0.140625 -1.203125q0 -1.1875 0.515625 -2.390625q0.53125 -1.203125 1.453125 -2.21875q1.4375 -0.90625 1.875 -1.0l0 0.046875q0.8125 -0.8125 1.984375 -1.390625q1.171875 -0.578125 3.046875 -1.203125l0.71875 -0.09375l0.96875 -0.09375q0.046875 0.046875 0.234375 0.09375q0.1875 0.046875 0.390625 0.09375q0.28125 0.140625 0.46875 0.140625q0.921875 0.15625 1.609375 1.109375q0.703125 0.953125 0.609375 1.828125q-0.09375 0.953125 -0.5625 1.65625q-0.453125 0.6875 -1.078125 0.78125q0.046875 -0.046875 -0.1875 -0.1875q-0.234375 -0.140625 -0.390625 -0.234375l-0.140625 0.09375q0 -0.046875 -0.03125 -0.171875q-0.015625 -0.125 -0.109375 -0.265625q-0.140625 -0.28125 -0.140625 -0.71875l0.046875 -0.71875l0.09375 -0.484375q0 -0.140625 -0.203125 -0.203125q-0.1875 -0.078125 -0.515625 -0.078125l-0.390625 -0.046875q-0.765625 0 -1.875 0.390625q-1.09375 0.375 -1.8125 0.953125q-1.640625 1.046875 -2.4375 1.84375q-0.78125 0.796875 -1.265625 1.84375q-0.578125 0.828125 -0.578125 1.203125q0 0.53125 0.75 1.0625q0.75 0.53125 2.421875 1.296875q1.34375 0.578125 2.1875 1.203125q0.84375 0.625 1.125 1.390625q0.046875 0.09375 0.046875 0.375q0 0.34375 -0.09375 0.4375q0.09375 0.09375 0.09375 0.140625l0 -0.046875q0.1875 0.390625 0.1875 0.625q0 0.765625 -0.953125 1.421875q-0.953125 0.640625 -2.453125 0.921875l0.046875 0q-1.140625 0.34375 -2.34375 0.34375z" fill-rule="nonzero"/><path fill="#000000" fill-opacity="0.0" d="m425.61676 587.1391l-0.62991333 88.31494" fill-rule="evenodd"/><path stroke="#000000" stroke-width="3.0" stroke-linejoin="round" stroke-linecap="butt" d="m425.61676 587.1391l-0.5566101 78.033936" fill-rule="evenodd"/><path fill="#000000" stroke="#000000" stroke-width="3.0" stroke-linecap="butt" d="m425.06018 665.1731l-3.3496094 -3.397766l3.3075562 9.293152l3.4397583 -9.244995z" fill-rule="evenodd"/><path fill="#000000" fill-opacity="0.0" d="m519.22345 236.97638c0 19.905518 -23.559082 29.858276 -47.118134 39.811035c-23.559052 9.952728 -47.118103 19.905487 -47.118103 39.811005" fill-rule="evenodd"/><path stroke="#000000" stroke-width="3.0" stroke-linejoin="round" stroke-linecap="butt" d="m519.22345 236.97638c0 19.905518 -23.559082 29.858276 -47.118134 39.811035c-11.779541 4.9763794 -23.559052 9.952728 -32.393707 16.173218c-4.417328 3.1102295 -8.098419 6.531494 -10.675201 10.419281c-0.64419556 0.97195435 -1.2193604 1.973053 -1.7197571 3.0057373l-0.08502197 0.1795044" fill-rule="evenodd"/><path fill="#000000" stroke="#000000" stroke-width="3.0" stroke-linecap="butt" d="m427.23166 306.56516l-2.5558777 -4.0289l1.2688293 9.782257l5.315918 -8.309235z" fill-rule="evenodd"/></g></svg>